<svg width="80" height="80" viewBox="0 0 31 26" fill="none" xmlns="http://www.w3.org/2000/svg">
	<path d="M27.8906 0.779297H7.64062C7.04389 0.779297 6.47159 1.01635 6.04963 1.43831C5.62768 1.86026 5.39062 2.43256 5.39062 3.0293V5.2793H3.14062C2.54389 5.2793 1.97159 5.51635 1.54963 5.93831C1.12768 6.36026 0.890625 6.93256 0.890625 7.5293V23.2793C0.890625 23.876 1.12768 24.4483 1.54963 24.8703C1.97159 25.2922 2.54389 25.5293 3.14062 25.5293H23.3906C23.9874 25.5293 24.5597 25.2922 24.9816 24.8703C25.4036 24.4483 25.6406 23.876 25.6406 23.2793V21.0293H27.8906C28.4874 21.0293 29.0597 20.7922 29.4816 20.3703C29.9036 19.9483 30.1406 19.376 30.1406 18.7793V3.0293C30.1406 2.43256 29.9036 1.86026 29.4816 1.43831C29.0597 1.01635 28.4874 0.779297 27.8906 0.779297ZM23.3906 7.5293V9.7793H3.14062V7.5293H23.3906ZM27.8906 18.7793H25.6406V7.5293C25.6406 6.93256 25.4036 6.36026 24.9816 5.93831C24.5597 5.51635 23.9874 5.2793 23.3906 5.2793H7.64062V3.0293H27.8906V18.7793Z" fill="black"/>
</svg>