<svg width="8" height="14" viewBox="0 0 8 14" fill="none" xmlns="http://www.w3.org/2000/svg">
<path d="M7.73828 0.933313C7.90495 1.09998 7.98828 1.29731 7.98828 1.52531C7.98828 1.75331 7.90495 1.95042 7.73828 2.11665L2.85495 6.99998L7.75495 11.9C7.9105 12.0555 7.98828 12.25 7.98828 12.4833C7.98828 12.7166 7.90495 12.9166 7.73828 13.0833C7.57161 13.25 7.37428 13.3333 7.14628 13.3333C6.91828 13.3333 6.72117 13.25 6.55495 13.0833L0.954948 7.46665C0.888281 7.39998 0.840949 7.32776 0.812949 7.24998C0.784948 7.1722 0.771171 7.08887 0.771615 6.99998C0.771615 6.91109 0.785615 6.82776 0.813615 6.74998C0.841615 6.6722 0.888726 6.59998 0.954948 6.53331L6.57162 0.916647C6.72717 0.761091 6.91895 0.683313 7.14695 0.683313C7.37495 0.683313 7.57206 0.766646 7.73828 0.933313Z" fill="#173242"/>
</svg>
