<svg width="8" height="14" viewBox="0 0 8 14" fill="none" xmlns="http://www.w3.org/2000/svg">
<path d="M0.271484 13.0667C0.104818 12.9 0.0214844 12.7027 0.0214844 12.4747C0.0214844 12.2467 0.104818 12.0496 0.271484 11.8834L5.15482 7.00002L0.254818 2.10002C0.0992621 1.94446 0.0214844 1.75002 0.0214844 1.51669C0.0214844 1.28335 0.104818 1.08335 0.271484 0.916687C0.438151 0.75002 0.635484 0.666687 0.863484 0.666687C1.09148 0.666687 1.2886 0.75002 1.45482 0.916687L7.05482 6.53335C7.12148 6.60002 7.16882 6.67224 7.19682 6.75002C7.22482 6.8278 7.2386 6.91113 7.23815 7.00002C7.23815 7.08891 7.22415 7.17224 7.19615 7.25002C7.16815 7.3278 7.12104 7.40002 7.05482 7.46669L1.43815 13.0834C1.2826 13.2389 1.09082 13.3167 0.862817 13.3167C0.634817 13.3167 0.437707 13.2334 0.271484 13.0667Z" fill="white"/>
</svg>
