<svg width="437" height="380" viewBox="0 0 437 380" fill="none" xmlns="http://www.w3.org/2000/svg">
<ellipse cx="223.5" cy="55.5" rx="86.5" ry="55.5" fill="black"/>
<ellipse cx="219" cy="36.5" rx="68" ry="32.5" fill="#474747"/>
<path d="M282.896 25.3919C283.675 26.4309 284.269 27.6048 284.605 28.859C289.818 48.2974 254.833 52.9999 223.5 52.9999C191.191 52.9999 165 41.5831 165 27.4999C165 13.4166 191.191 4.49986 223.5 4.49986C239.92 3.53396 271.733 10.4981 282.896 25.3919Z" fill="#7F7E7F"/>
<ellipse cx="218.5" cy="87.5" rx="218.5" ry="52.5" fill="black"/>
<path d="M415.5 102.475C415.26 104.787 413.793 107.132 411.077 109.475C408.355 111.822 404.428 114.123 399.395 116.339C389.331 120.771 374.937 124.825 357.162 128.259C321.621 135.127 272.654 139.5 218 139.5C163.351 139.5 113.218 134.502 77.0919 127.322C59.0245 123.731 44.4835 119.599 34.6372 115.284C29.7106 113.125 25.9913 110.934 23.5937 108.765C21.1893 106.589 20.1988 104.518 20.4945 102.575C20.909 99.8514 22.5388 97.2063 25.3628 94.6563C28.1872 92.106 32.1769 89.6782 37.2422 87.3933C47.3722 82.8236 61.7157 78.8637 79.3958 75.6168C114.749 69.1242 163.341 65.5 218 65.5C272.655 65.5 322.122 69.696 357.914 76.4748C375.814 79.8649 390.269 83.8965 400.236 88.3596C405.221 90.592 409.057 92.9202 411.638 95.3094C414.211 97.6908 415.491 100.087 415.5 102.475Z" fill="#7F7E7F" stroke="black"/>
<path d="M315 112.5C315 126.031 252.768 137 176 137C99.2324 137 38.4999 120 37 112.5C37 98.969 99.2324 88 176 88C252.768 88 315 98.969 315 112.5Z" fill="#474747"/>
<ellipse cx="218" cy="124" rx="84" ry="16" fill="black"/>
<rect x="235.757" y="11.6982" width="6" height="7" rx="3" transform="rotate(-26.3899 235.757 11.6982)" fill="white"/>
<rect x="248" y="16.6667" width="13.6371" height="15.9099" rx="6.81854" transform="rotate(-26.3899 248 16.6667)" fill="white"/>
<rect x="238" y="20.5103" width="7.89738" height="9.21361" rx="3.94869" transform="rotate(-26.3899 238 20.5103)" fill="white"/>
<ellipse cx="71.3518" cy="86.5883" rx="20" ry="7.5" transform="rotate(-10.8764 71.3518 86.5883)" fill="white"/>
<ellipse cx="218.601" cy="78.295" rx="20" ry="7.5" transform="rotate(5.23942 218.601 78.295)" fill="white"/>
<ellipse cx="364.352" cy="88.5915" rx="20" ry="7.5" transform="rotate(18.9608 364.352 88.5915)" fill="white"/>
<ellipse cx="332.195" cy="118.778" rx="11.9543" ry="4.44964" transform="rotate(-11.6846 332.195 118.778)" fill="white"/>
<path d="M294.5 144.5C294.5 152.232 260.25 158.5 218 158.5C175.75 158.5 141 151.732 141 144C150 132 175.75 130.5 218 130.5C260.25 130.5 294.5 136.768 294.5 144.5Z" fill="#7F7E7F"/>
<path d="M369 356.072C369 369.287 302.514 380 220.5 380C138.486 380 72 369.287 72 356.072C72 342.857 139.328 330.522 220.5 332.144C302.514 332.144 369 342.857 369 356.072Z" fill="#E59A00"/>
<path d="M216.412 155.732C155 155.134 143.855 147.776 140.5 144L73 356C84.0703 338.198 172.801 332.805 215.783 332.94C326.988 333.264 363.387 348.852 368 356L294.5 144.404C281.92 153.79 244.087 156.002 216.412 155.732Z" fill="#FFD580" stroke="#E59A00"/>
<path d="M140 144.5C140.347 139.649 136.841 130.82 134.163 125.621C133.463 124.261 133.324 122.613 134.489 121.622C136.818 119.641 141.972 117.228 152 115C152.333 121.333 155.7 132 158.5 134C155.667 135 145 140.5 140 144.5Z" fill="white"/>
<path d="M295 144.5C294.678 139.985 298.016 132.026 300.72 126.753C301.725 124.792 301.506 122.346 299.739 121.029C294.1 116.823 286.246 114.991 282 114C284.4 120 277.333 129.833 274.5 134.5C282.5 136.5 292.5 141.5 295 144.5Z" fill="white"/>
<path d="M140 144.5C140.347 139.649 136.841 130.82 134.163 125.621C133.463 124.261 133.324 122.613 134.489 121.622C136.818 119.641 141.972 117.228 152 115C152.333 121.333 155.7 132 158.5 134C155.667 135 145 140.5 140 144.5Z" stroke="black"/>
<path d="M295 144.5C294.678 139.985 298.016 132.026 300.72 126.753C301.725 124.792 301.506 122.346 299.739 121.029C294.1 116.823 286.246 114.991 282 114C284.4 120 277.333 129.833 274.5 134.5C282.5 136.5 292.5 141.5 295 144.5Z" stroke="black"/>
</svg>
