<svg xmlns="http://www.w3.org/2000/svg" width="130" height="40" viewBox="0 0 130 40" fill="none">
                        <rect x="0.5" y="0.500061" width="129" height="39" rx="7.5" fill="#295774"/>
                        <rect x="0.5" y="0.500061" width="129" height="39" rx="7.5" stroke="#295774"/>
                        <path d="M34.0994 25.1261C33.1287 25.1261 32.2981 24.9207 31.6074 24.5101C30.9167 24.0994 30.3847 23.5161 30.0114 22.7601C29.6474 22.0041 29.4654 21.1034 29.4654 20.0581C29.4654 19.0221 29.6474 18.1261 30.0114 17.3701C30.3847 16.6141 30.9167 16.0307 31.6074 15.6201C32.2981 15.2094 33.1287 15.0041 34.0994 15.0041C34.7807 15.0041 35.4061 15.1114 35.9754 15.3261C36.5541 15.5407 37.0441 15.8534 37.4454 16.2641L36.9974 17.2021C36.5681 16.8007 36.1201 16.5114 35.6534 16.3341C35.1961 16.1474 34.6874 16.0541 34.1274 16.0541C33.0167 16.0541 32.1674 16.4041 31.5794 17.1041C30.9914 17.8041 30.6974 18.7887 30.6974 20.0581C30.6974 21.3367 30.9914 22.3261 31.5794 23.0261C32.1674 23.7261 33.0167 24.0761 34.1274 24.0761C34.6874 24.0761 35.1961 23.9874 35.6534 23.8101C36.1201 23.6234 36.5681 23.3294 36.9974 22.9281L37.4454 23.8661C37.0441 24.2674 36.5541 24.5801 35.9754 24.8041C35.4061 25.0187 34.7807 25.1261 34.0994 25.1261ZM44.7725 25.1261C43.8579 25.1261 43.0599 24.9207 42.3785 24.5101C41.7065 24.0901 41.1839 23.5021 40.8105 22.7461C40.4465 21.9901 40.2645 21.0941 40.2645 20.0581C40.2645 19.0221 40.4465 18.1261 40.8105 17.3701C41.1745 16.6141 41.6925 16.0307 42.3645 15.6201C43.0459 15.2094 43.8485 15.0041 44.7725 15.0041C45.7059 15.0041 46.5085 15.2094 47.1805 15.6201C47.8619 16.0307 48.3845 16.6141 48.7485 17.3701C49.1219 18.1167 49.3085 19.0081 49.3085 20.0441C49.3085 21.0801 49.1219 21.9807 48.7485 22.7461C48.3752 23.5021 47.8479 24.0901 47.1665 24.5101C46.4945 24.9207 45.6965 25.1261 44.7725 25.1261ZM44.7725 24.1041C45.8272 24.1041 46.6439 23.7494 47.2225 23.0401C47.8012 22.3307 48.0905 21.3367 48.0905 20.0581C48.0905 18.7794 47.8012 17.7901 47.2225 17.0901C46.6439 16.3807 45.8272 16.0261 44.7725 16.0261C43.7365 16.0261 42.9292 16.3807 42.3505 17.0901C41.7719 17.7901 41.4825 18.7794 41.4825 20.0581C41.4825 21.3274 41.7719 22.3214 42.3505 23.0401C42.9292 23.7494 43.7365 24.1041 44.7725 24.1041ZM53.041 25.0001V15.1301H53.937L59.887 23.0681V15.1301H60.951V25.0001H60.083L54.119 17.0341V25.0001H53.041ZM65.0842 25.0001V15.1301H71.1882V16.0961H66.2322V19.5401H70.9082V20.5061H66.2322V25.0001H65.0842ZM74.4342 25.0001V15.1301H75.5822V25.0001H74.4342ZM79.6962 25.0001V15.1301H83.6022C84.6662 15.1301 85.4782 15.3774 86.0382 15.8721C86.6075 16.3667 86.8922 17.0714 86.8922 17.9861C86.8922 18.7141 86.6915 19.3114 86.2902 19.7781C85.8982 20.2447 85.3382 20.5481 84.6102 20.6881C85.0395 20.8374 85.4082 21.2014 85.7162 21.7801L87.4522 25.0001H86.1922L84.4842 21.8361C84.2695 21.4441 84.0222 21.1781 83.7422 21.0381C83.4622 20.8981 83.0935 20.8281 82.6362 20.8281H80.8442V25.0001H79.6962ZM80.8442 19.9181H83.4342C84.9835 19.9181 85.7582 19.2741 85.7582 17.9861C85.7582 16.7167 84.9835 16.0821 83.4342 16.0821H80.8442V19.9181ZM90.7694 25.0001V15.1301H91.7354L95.5294 22.2561L99.2954 15.1301H100.261V25.0001H99.1974V17.2861L95.9074 23.4741H95.1514L91.8194 17.3001V25.0001H90.7694Z" fill="white"/>
                        </svg>