<svg xmlns="http://www.w3.org/2000/svg" width="130" height="40" viewBox="0 0 130 40" fill="none">
                        <rect x="0.5" y="0.500061" width="129" height="39" rx="7.5" stroke="#295774"/>
                        <path d="M38.828 25.1261C37.8574 25.1261 37.0267 24.9207 36.336 24.5101C35.6454 24.0994 35.1134 23.5161 34.74 22.7601C34.376 22.0041 34.194 21.1034 34.194 20.0581C34.194 19.0221 34.376 18.1261 34.74 17.3701C35.1134 16.6141 35.6454 16.0307 36.336 15.6201C37.0267 15.2094 37.8574 15.0041 38.828 15.0041C39.5094 15.0041 40.1347 15.1114 40.704 15.3261C41.2827 15.5407 41.7727 15.8534 42.174 16.2641L41.726 17.2021C41.2967 16.8007 40.8487 16.5114 40.382 16.3341C39.9247 16.1474 39.416 16.0541 38.856 16.0541C37.7454 16.0541 36.896 16.4041 36.308 17.1041C35.72 17.8041 35.426 18.7887 35.426 20.0581C35.426 21.3367 35.72 22.3261 36.308 23.0261C36.896 23.7261 37.7454 24.0761 38.856 24.0761C39.416 24.0761 39.9247 23.9874 40.382 23.8101C40.8487 23.6234 41.2967 23.3294 41.726 22.9281L42.174 23.8661C41.7727 24.2674 41.2827 24.5801 40.704 24.8041C40.1347 25.0187 39.5094 25.1261 38.828 25.1261ZM44.4599 25.0001L48.8139 15.1301H49.7939L54.1479 25.0001H52.9579L51.8659 22.4801H46.7279L45.6499 25.0001H44.4599ZM49.2899 16.4741L47.1479 21.5141H51.4599L49.3179 16.4741H49.2899ZM57.2911 25.0001V15.1301H58.1871L64.1371 23.0681V15.1301H65.2011V25.0001H64.3331L58.3691 17.0341V25.0001H57.2911ZM73.6044 25.1261C72.6337 25.1261 71.803 24.9207 71.1124 24.5101C70.4217 24.0994 69.8897 23.5161 69.5164 22.7601C69.1524 22.0041 68.9704 21.1034 68.9704 20.0581C68.9704 19.0221 69.1524 18.1261 69.5164 17.3701C69.8897 16.6141 70.4217 16.0307 71.1124 15.6201C71.803 15.2094 72.6337 15.0041 73.6044 15.0041C74.2857 15.0041 74.911 15.1114 75.4804 15.3261C76.059 15.5407 76.549 15.8534 76.9504 16.2641L76.5024 17.2021C76.073 16.8007 75.625 16.5114 75.1584 16.3341C74.701 16.1474 74.1924 16.0541 73.6324 16.0541C72.5217 16.0541 71.6724 16.4041 71.0844 17.1041C70.4964 17.8041 70.2024 18.7887 70.2024 20.0581C70.2024 21.3367 70.4964 22.3261 71.0844 23.0261C71.6724 23.7261 72.5217 24.0761 73.6324 24.0761C74.1924 24.0761 74.701 23.9874 75.1584 23.8101C75.625 23.6234 76.073 23.3294 76.5024 22.9281L76.9504 23.8661C76.549 24.2674 76.059 24.5801 75.4804 24.8041C74.911 25.0187 74.2857 25.1261 73.6044 25.1261ZM80.4343 25.0001V15.1301H86.6643V16.0961H81.5543V19.5121H86.3703V20.4781H81.5543V24.0341H86.6643V25.0001H80.4343ZM90.2764 25.0001V15.1301H91.4244V23.9921H96.4504V25.0001H90.2764Z" fill="#295774"/>
                        </svg>