<svg width="8" height="14" viewBox="0 0 8 14" fill="none" xmlns="http://www.w3.org/2000/svg">
<path d="M7.2334 0.933313C7.40007 1.09998 7.4834 1.29731 7.4834 1.52531C7.4834 1.75331 7.40007 1.95042 7.2334 2.11665L2.35007 6.99998L7.25007 11.9C7.40562 12.0555 7.4834 12.25 7.4834 12.4833C7.4834 12.7166 7.40007 12.9166 7.2334 13.0833C7.06673 13.25 6.8694 13.3333 6.6414 13.3333C6.4134 13.3333 6.21629 13.25 6.05007 13.0833L0.450065 7.46665C0.383399 7.39998 0.336066 7.32776 0.308066 7.24998C0.280066 7.1722 0.266288 7.08887 0.266732 6.99998C0.266732 6.91109 0.280732 6.82776 0.308732 6.74998C0.336732 6.6722 0.383843 6.59998 0.450065 6.53331L6.06673 0.916647C6.22229 0.761091 6.41407 0.683313 6.64207 0.683313C6.87007 0.683313 7.06718 0.766646 7.2334 0.933313Z" fill="#173242"/>
</svg>
