<svg width="64" height="53" viewBox="0 0 64 53" fill="none" xmlns="http://www.w3.org/2000/svg">
<g clip-path="url(#clip0_705_3251)">
<path d="M36.2056 26.4551L42.4448 33.6206L50.8353 39.0073L52.2948 26.5003L50.8353 14.2754L42.2841 19.0075L36.2056 26.4551Z" fill="#00832D"/>
<path d="M0 37.8436V48.5014C0 50.9349 1.966 52.9107 4.3885 52.9107H14.996L17.1925 44.858L14.996 37.8436L7.7185 35.6367L0.00025 37.8436H0Z" fill="#0066DA"/>
<path d="M14.996 0L0 15.0671L7.719 17.2687L14.996 15.0671L17.1525 8.14818L14.996 0Z" fill="#E94235"/>
<path d="M0.000244141 37.8484H14.996V15.0669H0.000244141V37.8484Z" fill="#2684FC"/>
<path d="M60.4147 6.37964L50.835 14.2759V39.0075L60.4542 46.9344C61.8942 48.0678 64.0007 47.0349 64.0007 45.1957V8.08318C64.0007 6.22366 61.844 5.19581 60.4145 6.37989" fill="#00AC47"/>
<path d="M36.2056 26.4551V37.8433H14.9961V52.9104H46.4471C48.8696 52.9104 50.8353 50.9345 50.8353 48.5011V39.0073L36.2056 26.4551Z" fill="#00AC47"/>
<path d="M46.4471 0H14.9961V15.0671H36.2056V26.4553L50.8356 14.2753V4.40955C50.8356 1.97557 48.8696 0.000251185 46.4471 0.000251185" fill="#FFBA00"/>
</g>
<defs>
<clipPath id="clip0_705_3251">
<rect width="64" height="53" fill="white"/>
</clipPath>
</defs>
</svg>
