<svg width="108" height="50" viewBox="0 0 108 50" fill="none" xmlns="http://www.w3.org/2000/svg">
<path d="M16.1855 22.882L12.0349 23.3125L11.8863 23.8825L12.7019 24.007C13.2348 24.112 13.3399 24.271 13.2239 24.7105L11.8863 29.9125C11.5347 31.258 12.0766 31.891 13.3508 31.891C14.3386 31.891 15.4859 31.513 16.0061 30.994L16.1656 30.37C15.8031 30.634 15.2739 30.739 14.9222 30.739C14.4238 30.739 14.2425 30.4495 14.3712 29.9395L16.1855 22.882ZM16.3124 19.75C16.3124 20.1478 16.1215 20.5294 15.7815 20.8107C15.4416 21.092 14.9806 21.25 14.4999 21.25C14.0192 21.25 13.5582 21.092 13.2183 20.8107C12.8784 20.5294 12.6874 20.1478 12.6874 19.75C12.6874 19.3522 12.8784 18.9706 13.2183 18.6893C13.5582 18.408 14.0192 18.25 14.4999 18.25C14.9806 18.25 15.4416 18.408 15.7815 18.6893C16.1215 18.9706 16.3124 19.3522 16.3124 19.75Z" fill="black"/>
<path d="M33.092 30V20.835H34.223L37.616 27.166L40.996 20.835H42.101V30H40.892V23.279L38.019 28.596H37.2L34.314 23.305V30H33.092ZM46.6163 30.117C45.9749 30.117 45.4203 29.9827 44.9523 29.714C44.4843 29.4453 44.1203 29.0683 43.8603 28.583C43.6089 28.089 43.4833 27.504 43.4833 26.828C43.4833 26.152 43.6089 25.5713 43.8603 25.086C44.1203 24.592 44.4843 24.2107 44.9523 23.942C45.4203 23.6733 45.9749 23.539 46.6163 23.539C47.2403 23.539 47.7863 23.6733 48.2543 23.942C48.7223 24.2107 49.0863 24.592 49.3463 25.086C49.6063 25.5713 49.7363 26.152 49.7363 26.828C49.7363 27.504 49.6063 28.089 49.3463 28.583C49.0863 29.0683 48.7223 29.4453 48.2543 29.714C47.7863 29.9827 47.2403 30.117 46.6163 30.117ZM46.6163 29.103C47.1536 29.103 47.5869 28.908 47.9163 28.518C48.2456 28.128 48.4103 27.5647 48.4103 26.828C48.4103 26.0913 48.2456 25.5323 47.9163 25.151C47.5869 24.761 47.1536 24.566 46.6163 24.566C46.0703 24.566 45.6326 24.761 45.3033 25.151C44.9739 25.5323 44.8093 26.0913 44.8093 26.828C44.8093 27.5647 44.9739 28.128 45.3033 28.518C45.6326 28.908 46.0703 29.103 46.6163 29.103ZM50.9509 30V23.656H52.2249V24.787C52.5542 24.033 53.2389 23.6127 54.2789 23.526L54.7079 23.5L54.7989 24.618L54.0059 24.696C52.8532 24.8087 52.2769 25.4023 52.2769 26.477V30H50.9509ZM58.4286 30.117C57.3886 30.117 56.5696 29.8267 55.9716 29.246C55.3736 28.6567 55.0746 27.855 55.0746 26.841C55.0746 26.191 55.2046 25.619 55.4646 25.125C55.7333 24.6223 56.1016 24.2323 56.5696 23.955C57.0376 23.6777 57.5749 23.539 58.1816 23.539C59.0569 23.539 59.7459 23.8207 60.2486 24.384C60.7513 24.9387 61.0026 25.7057 61.0026 26.685V27.127H56.3486C56.4439 28.4443 57.1416 29.103 58.4416 29.103C58.8056 29.103 59.1609 29.0467 59.5076 28.934C59.8629 28.8213 60.1966 28.635 60.5086 28.375L60.8986 29.285C60.6126 29.545 60.2443 29.7487 59.7936 29.896C59.3429 30.0433 58.8879 30.117 58.4286 30.117ZM58.2336 24.462C57.6876 24.462 57.2543 24.631 56.9336 24.969C56.6129 25.307 56.4179 25.7577 56.3486 26.321H59.8976C59.8716 25.7317 59.7156 25.2767 59.4296 24.956C59.1436 24.6267 58.7449 24.462 58.2336 24.462ZM65.4721 30V20.835H66.8241V30H65.4721ZM68.5349 30V23.656H69.8089V24.709C70.0255 24.3277 70.3202 24.0373 70.6929 23.838C71.0742 23.6387 71.4989 23.539 71.9669 23.539C73.4662 23.539 74.2159 24.3883 74.2159 26.087V30H72.9029V26.165C72.9029 25.619 72.7945 25.2203 72.5779 24.969C72.3699 24.7177 72.0405 24.592 71.5899 24.592C71.0612 24.592 70.6365 24.761 70.3159 25.099C70.0039 25.4283 69.8479 25.866 69.8479 26.412V30H68.5349ZM76.1421 30V24.67H74.9071V23.656H76.1421V23.539C76.1421 22.6637 76.3631 22.005 76.8051 21.563C77.2558 21.121 77.9448 20.874 78.8721 20.822L79.4441 20.783L79.5351 21.771L78.9371 21.81C78.4084 21.8447 78.0271 21.9877 77.7931 22.239C77.5678 22.4903 77.4551 22.863 77.4551 23.357V23.656H79.2361V24.67H77.4551V30H76.1421ZM82.5902 30.117C81.9489 30.117 81.3942 29.9827 80.9262 29.714C80.4582 29.4453 80.0942 29.0683 79.8342 28.583C79.5829 28.089 79.4572 27.504 79.4572 26.828C79.4572 26.152 79.5829 25.5713 79.8342 25.086C80.0942 24.592 80.4582 24.2107 80.9262 23.942C81.3942 23.6733 81.9489 23.539 82.5902 23.539C83.2142 23.539 83.7602 23.6733 84.2282 23.942C84.6962 24.2107 85.0602 24.592 85.3202 25.086C85.5802 25.5713 85.7102 26.152 85.7102 26.828C85.7102 27.504 85.5802 28.089 85.3202 28.583C85.0602 29.0683 84.6962 29.4453 84.2282 29.714C83.7602 29.9827 83.2142 30.117 82.5902 30.117ZM82.5902 29.103C83.1275 29.103 83.5609 28.908 83.8902 28.518C84.2195 28.128 84.3842 27.5647 84.3842 26.828C84.3842 26.0913 84.2195 25.5323 83.8902 25.151C83.5609 24.761 83.1275 24.566 82.5902 24.566C82.0442 24.566 81.6065 24.761 81.2772 25.151C80.9479 25.5323 80.7832 26.0913 80.7832 26.828C80.7832 27.5647 80.9479 28.128 81.2772 28.518C81.6065 28.908 82.0442 29.103 82.5902 29.103Z" fill="black"/>
</svg>
