<svg width="61" height="60" viewBox="0 0 61 60" fill="none" xmlns="http://www.w3.org/2000/svg">
<g clip-path="url(#clip0_69_5002)">
<path d="M35.6261 42.4898L44.3261 51.3035C46.3065 53.31 49.5686 53.3309 51.5748 51.3506C53.5813 49.3702 53.6026 46.1081 51.6222 44.1016L42.7623 35.1258H35.6261V42.4898ZM25.3743 17.5104L16.6743 8.69648C14.6938 6.68977 11.432 6.66867 9.42551 8.64961C7.41926 10.6298 7.3977 13.8916 9.3784 15.8981L18.2378 24.8742H25.3745V17.5102H25.374L25.3743 17.5104Z" fill="#AFD94F"/>
<path d="M18.238 24.874H5.62578C2.80695 24.874 0.5 27.1805 0.5 30C0.5 32.8195 2.80695 35.126 5.62578 35.126H18.125L23.2745 29.9768L18.2382 24.8744L18.238 24.874ZM55.3742 24.874H42.875L37.7255 30.0232L42.7623 35.1255H55.374C58.1935 35.1255 60.5 32.819 60.5 29.9998C60.5 27.1802 58.1933 24.874 55.3742 24.874Z" fill="#38E1FA"/>
<path d="M18.1246 35.1258L9.28628 43.9641C7.29292 45.9577 7.29292 49.2199 9.28628 51.2133C11.2799 53.2069 14.5421 53.2069 16.5355 51.2133L25.3738 42.375V35.1263H18.1246V35.1258ZM42.8746 24.8742L51.7128 16.036C53.7064 14.0424 53.7064 10.7803 51.7128 8.78674C49.7192 6.79315 46.4575 6.79315 44.4639 8.78674L35.6258 17.625V24.8738H42.8746V24.8742Z" fill="#515DF4"/>
<path d="M35.6261 17.625V5.12578C35.6261 2.30719 33.3198 0 30.5003 0C27.6807 0 25.3743 2.30695 25.3743 5.12578V17.5104L30.5237 22.7273L35.6261 17.625ZM25.3743 42.375V54.874C25.3743 57.6935 27.6805 60 30.5 60C33.3196 60 35.6261 57.6933 35.6261 54.874V42.4896L30.4764 37.2727L25.3743 42.375Z" fill="#4BC6CF"/>
<path d="M25.374 27.8768V24.8742H18.2378L23.2743 29.9765L25.374 27.8768ZM35.6258 32.1229V35.1258H42.7619L37.7254 30.0232L35.6258 32.1229Z" fill="#50DEB4"/>
<path d="M35.626 27.8965L37.7255 30.0234L42.8748 24.8742H35.626V27.8965ZM25.3742 32.104L23.2742 29.9763L18.1248 35.126H25.3742V32.104Z" fill="#5575F1"/>
<path d="M35.6257 32.1229L37.7253 30.0232L35.6257 27.8962V32.1229ZM23.2742 29.9763L25.3739 32.104V27.8768L23.2742 29.9763Z" fill="#5073E8"/>
<path d="M32.623 35.1258L30.4764 37.2726L35.6261 42.4898V35.1258H32.623ZM28.3766 24.874L30.5235 22.7271L25.374 17.5104V24.874H28.3766Z" fill="#38BAA5"/>
<path d="M35.6261 35.126V32.1229L32.623 35.126H35.6261ZM25.374 24.8742V27.8768L28.3766 24.8742H25.374Z" fill="#2AB2C2"/>
<path d="M32.6427 24.8742H35.6258V17.625L30.5235 22.7273L32.6427 24.8742ZM28.3569 35.1258H25.374V42.375L30.4761 37.2726L28.3569 35.1258Z" fill="#2EA7CD"/>
<path d="M30.4759 37.2727L32.6228 35.1258H28.3572L30.4759 37.2727ZM30.5233 22.7273L28.3766 24.874H32.6425L30.5233 22.7273Z" fill="#2DA5C5"/>
<path d="M35.6258 24.8742H32.6427L35.6258 27.8965V24.8742ZM25.374 35.126H28.3569L25.374 32.104V35.126Z" fill="#2CA7CD"/>
<path d="M32.6425 24.8742H28.3766L25.374 27.8768V32.104L28.3569 35.126H32.623L35.6258 32.1229V27.8965L32.6425 24.8742Z" fill="#2CA5C8"/>
</g>
<defs>
<clipPath id="clip0_69_5002">
<rect width="60" height="60" fill="white" transform="translate(0.5)"/>
</clipPath>
</defs>
</svg>
