<svg width="145" height="96" viewBox="0 0 145 96" fill="none" xmlns="http://www.w3.org/2000/svg">
<g filter="url(#filter0_d_2776_6111)">
<rect x="20" y="18" width="100" height="40" rx="8" fill="white" shape-rendering="crispEdges"/>
<path d="M55 26H37L36 26.8674V49.4189L37.744 50L46 42.0411L54.256 50L56 49.4189V26.8674L55 26ZM54 47.1637L46.744 40.1641H45.256L38 47.1637V27.7347H54V47.1637Z" fill="black"/>
<path d="M68.41 43.126C67.6353 43.126 66.9353 43.028 66.31 42.832C65.6847 42.6267 65.1433 42.3327 64.686 41.95L65.092 41.026C65.568 41.39 66.0673 41.6607 66.59 41.838C67.1127 42.0153 67.7193 42.104 68.41 42.104C69.25 42.104 69.8707 41.95 70.272 41.642C70.6827 41.3247 70.888 40.9093 70.888 40.396C70.888 39.9853 70.7387 39.6587 70.44 39.416C70.1507 39.1733 69.6607 38.982 68.97 38.842L67.514 38.548C66.6367 38.3613 65.9787 38.058 65.54 37.638C65.1107 37.2087 64.896 36.6393 64.896 35.93C64.896 35.342 65.0453 34.8287 65.344 34.39C65.652 33.9513 66.0767 33.6107 66.618 33.368C67.1593 33.1253 67.7847 33.004 68.494 33.004C69.1567 33.004 69.7727 33.1113 70.342 33.326C70.9113 33.5313 71.392 33.83 71.784 34.222L71.378 35.118C70.958 34.7353 70.5147 34.46 70.048 34.292C69.5813 34.1147 69.0587 34.026 68.48 34.026C67.7427 34.026 67.1547 34.1987 66.716 34.544C66.2773 34.88 66.058 35.328 66.058 35.888C66.058 36.336 66.1933 36.6907 66.464 36.952C66.744 37.2133 67.1967 37.4047 67.822 37.526L69.278 37.834C70.2207 38.03 70.916 38.3287 71.364 38.73C71.8213 39.122 72.05 39.6587 72.05 40.34C72.05 40.8907 71.9007 41.376 71.602 41.796C71.3127 42.216 70.8927 42.5427 70.342 42.776C69.8007 43.0093 69.1567 43.126 68.41 43.126ZM73.9719 43L78.3259 33.13H79.3059L83.6599 43H82.4699L81.3779 40.48H76.2399L75.1619 43H73.9719ZM78.8019 34.474L76.6599 39.514H80.9719L78.8299 34.474H78.8019ZM88.5575 43L84.2455 33.13H85.4775L89.1035 41.544L92.7155 33.13H93.9195L89.5935 43H88.5575ZM96.2499 43V33.13H102.48V34.096H97.3699V37.512H102.186V38.478H97.3699V42.034H102.48V43H96.2499Z" fill="black"/>
</g>
<defs>
<filter id="filter0_d_2776_6111" x="-8" y="0" width="156" height="96" filterUnits="userSpaceOnUse" color-interpolation-filters="sRGB">
<feFlood flood-opacity="0" result="BackgroundImageFix"/>
<feColorMatrix in="SourceAlpha" type="matrix" values="0 0 0 0 0 0 0 0 0 0 0 0 0 0 0 0 0 0 127 0" result="hardAlpha"/>
<feMorphology radius="10" operator="dilate" in="SourceAlpha" result="effect1_dropShadow_2776_6111"/>
<feOffset dy="10"/>
<feGaussianBlur stdDeviation="9"/>
<feComposite in2="hardAlpha" operator="out"/>
<feColorMatrix type="matrix" values="0 0 0 0 0.498039 0 0 0 0 0.494118 0 0 0 0 0.498039 0 0 0 0.25 0"/>
<feBlend mode="normal" in2="BackgroundImageFix" result="effect1_dropShadow_2776_6111"/>
<feBlend mode="normal" in="SourceGraphic" in2="effect1_dropShadow_2776_6111" result="shape"/>
</filter>
</defs>
</svg>
