<svg width="20" height="19" viewBox="0 0 20 19" fill="none" xmlns="http://www.w3.org/2000/svg">
<path d="M17.6662 18.9999C17.4296 19.0005 17.1958 18.9558 16.982 18.8689C16.7682 18.782 16.5798 18.6552 16.4307 18.4978L8.78025 10.3564C8.54728 10.1136 8.41992 9.80908 8.41992 9.49479C8.41992 9.18049 8.54728 8.87595 8.78025 8.63315L16.7 0.491769C16.9689 0.214668 17.3552 0.0404094 17.774 0.00732863C18.1929 -0.0257522 18.6099 0.0850547 18.9334 0.315373C19.2568 0.54569 19.4603 0.876653 19.4989 1.23545C19.5375 1.59425 19.4081 1.9515 19.1393 2.2286L12.059 9.50157L18.9017 16.7745C19.0954 16.9737 19.2184 17.2162 19.2562 17.4734C19.2941 17.7306 19.2451 17.9917 19.1151 18.2258C18.9851 18.4599 18.7796 18.6573 18.5228 18.7944C18.2661 18.9316 17.9688 19.0029 17.6662 18.9999Z" fill="#F0EDEE"/>
<path d="M2.34454 -0.000220038C2.58117 -0.00091048 2.81498 0.0438302 3.02878 0.13071C3.24258 0.21759 3.43094 0.344404 3.58002 0.501832L11.2305 8.64322C11.4635 8.88601 11.5908 9.19056 11.5908 9.50485C11.5908 9.81914 11.4635 10.1237 11.2305 10.3665L3.31075 18.5079C3.04189 18.785 2.65555 18.9592 2.23671 18.9923C1.81787 19.0254 1.40085 18.9146 1.07738 18.6843C0.753908 18.4539 0.550491 18.123 0.511875 17.7642C0.473259 17.4054 0.602607 17.0481 0.871464 16.771L7.95172 9.49806L1.10906 2.22509C0.915369 2.02592 0.792332 1.78339 0.754508 1.52619C0.716684 1.26899 0.765655 1.00789 0.895627 0.773788C1.0256 0.539685 1.23113 0.342376 1.48791 0.205207C1.74468 0.0680382 2.04195 -0.00324893 2.34454 -0.000220038Z" fill="#F0EDEE"/>
</svg>
