<?xml version="1.0" standalone="no"?>
<!DOCTYPE svg PUBLIC "-//W3C//DTD SVG 20010904//EN"
 "http://www.w3.org/TR/2001/REC-SVG-20010904/DTD/svg10.dtd">
<svg version="1.0" xmlns="http://www.w3.org/2000/svg"
 width="1302.000000pt" height="1302.000000pt" viewBox="0 0 1302.000000 1302.000000"
 preserveAspectRatio="xMidYMid meet">
<metadata>
Created by potrace 1.11, written by Peter Selinger 2001-2013
</metadata>
<g transform="translate(0.000000,1302.000000) scale(0.100000,-0.100000)"
fill="#000000" stroke="none">
<path d="M9017 12015 c-1 -1 -54 -5 -117 -9 -63 -4 -133 -9 -155 -11 -22 -3
-62 -7 -90 -10 -27 -2 -63 -6 -80 -9 -16 -2 -66 -10 -110 -16 -87 -11 -102
-14 -220 -36 -45 -8 -94 -16 -110 -19 -17 -2 -41 -6 -55 -9 -14 -3 -36 -8 -50
-11 -14 -3 -34 -7 -45 -9 -43 -8 -293 -68 -345 -83 -49 -13 -69 -19 -105 -26
-5 -2 -16 -6 -22 -10 -7 -5 -13 -6 -13 -3 0 3 -12 1 -27 -5 -16 -6 -37 -13
-48 -15 -27 -5 -173 -49 -207 -63 -16 -6 -28 -8 -28 -5 0 4 -6 2 -12 -3 -11
-9 -55 -23 -73 -24 -3 0 -76 -25 -162 -55 -87 -31 -169 -60 -183 -64 -50 -17
-188 -68 -236 -88 -27 -11 -103 -41 -169 -67 -66 -26 -149 -61 -185 -78 -36
-16 -69 -31 -75 -32 -41 -12 -55 -19 -55 -28 0 -6 -3 -8 -6 -5 -3 3 -43 -12
-90 -34 -46 -21 -88 -37 -92 -34 -4 2 -26 7 -48 10 -42 7 -73 12 -114 21 -30
7 -57 12 -135 26 -56 10 -72 13 -127 23 -76 13 -115 21 -157 30 -10 2 -36 7
-57 10 -52 8 -105 18 -129 23 -11 3 -30 6 -42 8 -12 2 -34 6 -50 9 -66 13
-172 29 -196 28 -17 -1 -78 -30 -192 -92 -126 -69 -145 -78 -145 -72 0 4 -4 2
-8 -5 -4 -6 -56 -37 -117 -69 -60 -31 -128 -68 -150 -82 -22 -14 -46 -25 -52
-25 -7 0 -13 -4 -13 -9 0 -4 -6 -8 -14 -8 -8 0 -21 -6 -28 -12 -15 -14 -41
-28 -153 -86 -38 -20 -73 -40 -76 -45 -3 -4 -12 -9 -20 -11 -8 -1 -39 -16 -69
-34 -30 -17 -58 -30 -61 -29 -3 1 -13 -6 -23 -16 -10 -9 -22 -15 -27 -12 -5 4
-9 2 -9 -3 0 -8 -32 -27 -55 -31 -5 -1 -17 -8 -25 -15 -8 -7 -89 -53 -180
-102 -91 -49 -174 -94 -185 -101 -11 -7 -30 -17 -42 -22 -12 -5 -62 -33 -111
-60 -141 -80 -233 -130 -292 -159 -30 -15 -57 -30 -60 -33 -3 -3 -41 -25 -85
-48 -44 -24 -81 -44 -82 -45 -2 -1 28 -13 65 -25 37 -13 76 -27 87 -31 19 -8
215 -73 225 -75 3 0 21 -6 40 -12 19 -6 116 -37 215 -68 99 -31 198 -63 220
-72 22 -8 41 -14 43 -14 1 1 3 1 5 0 1 0 9 -2 17 -4 8 -2 53 -16 100 -30 47
-15 95 -29 107 -32 29 -7 50 -27 103 -102 25 -35 53 -72 63 -82 9 -11 17 -21
17 -24 0 -4 69 -102 127 -181 4 -5 13 -17 18 -26 6 -9 54 -81 108 -159 54 -79
114 -169 134 -201 l35 -57 -62 -168 c-34 -92 -66 -177 -70 -188 -10 -24 -34
-99 -32 -102 1 -2 -5 -18 -13 -38 -27 -64 -27 -96 1 -165 26 -66 32 -79 105
-235 23 -49 42 -94 43 -100 1 -5 5 -15 8 -21 21 -34 228 -454 228 -463 0 -6 4
-11 9 -11 5 0 13 -9 16 -20 3 -11 26 -55 49 -98 23 -42 63 -115 88 -162 64
-118 116 -212 128 -230 6 -8 14 -25 20 -38 5 -12 26 -47 45 -77 19 -31 35 -59
35 -63 0 -4 25 -47 55 -97 30 -49 62 -106 72 -125 9 -19 20 -37 23 -40 3 -3
23 -34 43 -70 90 -158 309 -523 318 -530 3 -3 14 -21 24 -40 10 -19 48 -82 85
-140 37 -58 94 -148 126 -200 32 -52 62 -97 67 -98 4 -2 7 -8 7 -14 0 -5 23
-43 50 -84 28 -41 50 -78 50 -83 0 -5 3 -11 8 -13 4 -1 52 -73 107 -158 208
-324 460 -694 715 -1053 221 -310 243 -341 250 -347 3 -3 17 -21 30 -40 13
-19 30 -42 37 -50 7 -8 37 -46 66 -85 28 -38 57 -75 62 -81 6 -7 39 -50 75
-97 l65 -85 70 -2 c134 -3 271 -9 370 -15 55 -4 109 -6 120 -6 30 0 58 -22 90
-73 16 -25 33 -46 37 -46 4 0 8 -5 8 -10 0 -10 48 -88 60 -100 3 -3 28 -41 55
-84 56 -88 64 -103 149 -243 33 -54 66 -106 74 -115 8 -10 11 -18 6 -18 -5 0
-4 -4 2 -8 22 -14 84 -145 79 -166 -2 -12 -10 -41 -16 -66 -6 -25 -13 -54 -15
-65 -2 -11 -14 -60 -28 -109 -14 -48 -25 -91 -24 -95 1 -3 -2 -13 -5 -21 -6
-14 -65 -246 -73 -283 -2 -10 -6 -28 -10 -40 -4 -12 -8 -31 -10 -42 -2 -11
-10 -45 -18 -75 -17 -60 -82 -337 -91 -385 -12 -68 -16 -89 -21 -96 -20 -33
83 6 123 46 8 8 19 15 25 15 5 0 33 15 61 33 92 60 258 157 268 157 5 0 9 5 9
10 0 6 4 10 9 10 5 0 38 18 72 40 35 22 73 45 84 50 11 6 34 19 50 30 17 11
39 24 50 29 11 5 40 24 65 40 25 17 51 31 58 31 6 0 12 5 12 10 0 6 4 10 8 10
7 0 159 90 407 242 39 23 79 48 90 54 11 6 57 34 102 62 46 29 87 52 92 52 5
0 16 6 23 13 7 7 69 46 138 88 241 145 332 204 341 221 10 19 109 430 112 465
1 13 6 23 11 23 5 0 7 2 4 6 -3 3 -2 22 4 42 10 41 15 66 32 155 3 12 23 94
45 182 22 89 42 171 44 183 2 12 6 25 10 28 4 4 7 17 7 29 0 12 3 25 7 29 4 3
8 13 10 21 16 77 34 114 71 141 20 15 42 32 47 38 6 7 37 33 70 58 33 26 72
57 87 70 14 13 35 30 45 38 10 8 43 35 73 60 30 25 59 50 65 56 5 5 39 35 75
65 36 30 70 59 76 64 6 6 39 35 74 65 35 30 78 69 96 85 17 17 65 59 105 95
40 36 102 93 137 128 35 34 65 62 67 62 5 0 341 339 425 429 165 177 263 287
338 379 201 248 292 368 382 502 24 36 47 67 52 68 4 2 8 8 8 13 0 8 69 121
110 180 10 14 31 50 46 80 15 30 33 57 38 61 6 4 7 8 2 8 -5 0 -3 6 3 14 22
26 109 204 103 210 -3 3 -1 6 5 6 9 0 20 23 20 40 0 3 5 15 12 28 13 24 14 69
5 202 -2 41 -4 81 -4 88 0 24 0 38 -4 127 -3 50 -5 90 -6 90 -1 0 -3 43 -5 95
-6 127 -14 302 -20 425 -3 55 -7 136 -9 180 -2 44 -7 130 -10 190 -3 61 -8
151 -11 200 -7 136 -15 270 -20 365 -3 47 -7 130 -10 185 -6 129 -15 289 -21
390 -4 80 -5 94 -3 118 0 6 -2 44 -5 82 -3 39 -8 124 -11 190 -3 66 -8 158
-11 205 -3 47 -7 123 -9 170 -2 47 -4 85 -5 85 -1 0 -3 41 -5 90 -6 129 -22
442 -24 460 -1 6 -20 18 -44 29 -23 10 -82 38 -132 61 -49 24 -121 57 -160 75
-38 18 -108 51 -155 73 -94 44 -172 80 -180 82 -3 0 -45 20 -95 44 -49 24
-121 58 -160 76 -38 18 -100 47 -136 64 -37 17 -72 31 -78 31 -6 0 -11 5 -11
10 0 6 -6 10 -13 10 -8 0 -45 15 -83 33 -38 19 -107 51 -154 73 -47 21 -88 42
-91 47 -3 5 -10 9 -15 9 -15 1 -36 10 -129 54 -49 23 -126 59 -170 80 -44 20
-122 56 -173 80 -52 24 -95 44 -97 44 -2 0 -172 80 -341 161 -33 16 -65 29
-71 29 -6 0 -16 7 -23 15 -7 9 -15 13 -18 11 -2 -3 -23 5 -46 16 -22 12 -43
22 -46 23 -3 0 -41 18 -85 39 -44 21 -137 65 -207 97 -69 32 -135 62 -145 68
-10 6 -47 23 -83 39 -36 17 -95 44 -132 61 -37 17 -88 34 -115 37 -44 5 -400
13 -406 9z m238 -2949 c22 -3 51 -7 65 -10 14 -4 39 -8 55 -10 77 -11 315
-109 365 -151 8 -6 22 -14 30 -17 47 -17 232 -182 311 -277 29 -35 114 -192
142 -261 106 -264 137 -407 139 -635 1 -146 -10 -225 -49 -350 -47 -149 -145
-315 -254 -432 -45 -48 -148 -143 -155 -143 -3 0 -15 -9 -27 -21 -33 -32 -198
-139 -213 -139 -2 0 -16 19 -30 43 -15 23 -30 44 -33 47 -3 3 -15 22 -26 43
-11 20 -23 37 -27 37 -5 0 -8 5 -8 11 0 7 -16 34 -35 60 -19 27 -35 51 -35 53
0 9 -125 201 -132 204 -5 2 -8 8 -8 13 0 5 -28 53 -63 106 -35 54 -103 161
-152 238 -48 77 -103 163 -121 190 -49 77 -196 309 -261 413 -32 51 -64 99
-70 107 -7 7 -13 16 -13 20 0 3 -22 39 -50 80 -27 41 -50 76 -50 79 0 2 -27
45 -60 95 -33 50 -60 93 -60 96 0 3 -5 11 -10 18 -15 18 -131 198 -136 211 -2
6 18 24 44 40 65 40 242 132 272 141 14 4 43 16 66 26 22 10 52 20 65 23 42 7
54 11 59 17 8 8 138 31 210 36 36 3 66 6 67 7 4 3 143 -3 188 -8z"/>
<path d="M3620 8088 c-91 -54 -150 -87 -245 -138 -125 -67 -170 -93 -178 -99
-4 -4 11 -41 34 -82 73 -132 189 -372 189 -391 0 -21 -29 -58 -47 -58 -6 0
-16 -6 -20 -13 -4 -7 -44 -30 -89 -52 l-81 -39 35 -76 c47 -104 55 -124 54
-132 -1 -5 3 -8 8 -8 6 0 10 -9 10 -20 0 -11 4 -20 8 -20 4 0 14 -16 21 -36
13 -37 98 -218 179 -384 26 -52 46 -98 44 -102 -1 -5 2 -8 8 -8 6 0 9 -3 8 -7
-2 -9 42 -97 177 -358 107 -206 130 -248 159 -300 29 -52 99 -181 122 -225 11
-19 22 -36 27 -38 4 -2 7 -8 7 -13 0 -5 25 -53 57 -107 31 -53 72 -124 91
-157 19 -33 40 -70 46 -82 6 -13 14 -23 19 -23 4 0 7 -4 7 -8 0 -8 93 -166
153 -259 15 -24 27 -45 27 -48 0 -3 5 -11 10 -18 9 -10 130 -197 165 -255 20
-33 363 -549 391 -589 16 -22 35 -49 42 -59 85 -126 196 -280 203 -282 5 -2 9
-8 9 -13 0 -8 89 -136 115 -166 5 -6 35 -47 65 -92 30 -44 60 -80 65 -81 6 0
27 15 46 33 108 100 253 217 269 217 11 0 100 -115 100 -129 0 -6 3 -11 8 -11
4 0 23 -27 42 -60 19 -33 38 -60 43 -60 4 0 7 -7 7 -15 0 -8 5 -15 10 -15 6 0
10 -6 10 -13 0 -7 13 -31 30 -53 16 -21 30 -45 30 -51 0 -7 5 -13 10 -13 6 0
10 -5 10 -11 0 -6 12 -26 27 -46 l27 -35 166 6 c171 7 226 11 320 21 30 3 78
7 105 9 28 2 58 4 68 5 13 1 -3 28 -68 114 -46 61 -94 121 -105 132 -11 12
-20 25 -20 29 0 5 -6 14 -13 20 -8 6 -49 58 -93 116 -43 58 -81 107 -84 110
-3 3 -21 26 -40 53 -19 26 -43 57 -54 70 -23 27 -126 162 -146 191 -21 30 -74
100 -80 106 -3 3 -17 21 -30 40 -13 19 -29 40 -35 46 -5 6 -18 22 -27 35 -10
13 -74 100 -143 192 -69 92 -125 172 -125 177 0 4 -4 10 -8 12 -11 5 -242 326
-242 337 0 5 -4 11 -9 13 -8 3 -372 545 -443 660 -92 150 -228 378 -228 384 0
3 -8 18 -19 32 -18 27 -149 260 -201 360 -16 29 -33 59 -40 67 -7 8 -9 15 -5
15 4 0 3 6 -3 13 -19 23 -223 424 -360 707 -9 19 -19 37 -22 40 -3 3 -6 12 -8
20 -2 8 -30 69 -61 135 -32 66 -67 140 -79 165 -11 25 -38 84 -61 131 -23 48
-41 89 -41 92 0 2 -23 54 -51 113 -64 138 -72 155 -106 233 -43 100 -67 144
-78 147 -5 1 -48 -20 -95 -48z"/>
<path d="M2328 6145 c-2 -3 -26 -7 -54 -10 -27 -3 -60 -7 -74 -11 -14 -3 -38
-7 -55 -10 -16 -3 -61 -17 -100 -31 -38 -13 -77 -26 -87 -28 -48 -10 -338
-171 -368 -205 -3 -3 -25 -21 -50 -40 -109 -84 -251 -225 -375 -375 -28 -33
-54 -63 -60 -67 -7 -5 -7 -8 0 -8 6 0 5 -4 -1 -8 -33 -21 -334 -462 -334 -489
0 -7 -4 -13 -8 -13 -9 0 -36 -48 -37 -64 0 -15 164 -14 245 2 92 17 233 69
337 124 119 63 151 78 164 78 6 0 -47 -57 -118 -127 -71 -71 -150 -153 -174
-183 -45 -56 -54 -68 -77 -95 -7 -8 -9 -15 -5 -15 4 0 3 -4 -2 -8 -16 -11 -65
-80 -65 -90 0 -6 -3 -12 -7 -14 -10 -4 -60 -81 -74 -111 -5 -12 -19 -38 -31
-57 -24 -39 -108 -206 -161 -320 -77 -164 -91 -195 -91 -200 -3 -16 -194 -401
-236 -475 -22 -38 -48 -85 -57 -102 -9 -18 -20 -33 -25 -33 -4 0 -8 -5 -8 -11
0 -12 -130 -202 -142 -207 -4 -2 -8 -8 -8 -13 0 -13 -151 -199 -162 -199 -4 0
-8 -4 -8 -10 0 -10 25 -2 85 25 69 32 326 110 425 129 14 3 34 7 45 9 11 3 42
8 68 11 27 4 59 9 70 12 12 2 45 6 72 9 28 3 73 7 100 11 107 12 196 15 645
19 507 4 647 10 828 30 105 12 140 18 182 29 14 3 39 8 55 9 17 2 36 7 43 11
7 4 12 5 12 3 0 -3 42 6 93 20 50 14 106 27 122 30 29 5 29 5 10 -11 -11 -8
-26 -16 -32 -16 -7 0 -13 -4 -13 -10 0 -5 -11 -12 -25 -16 -14 -3 -25 -10 -25
-15 0 -5 -4 -9 -9 -9 -5 0 -36 -16 -68 -36 -32 -19 -67 -40 -78 -47 -11 -7
-22 -14 -25 -17 -3 -3 -25 -19 -50 -35 -104 -69 -272 -239 -255 -257 3 -3 90
-3 193 -1 103 3 222 5 264 6 43 1 78 4 78 7 0 3 26 5 58 6 54 1 169 10 240 19
108 14 163 23 252 41 41 9 89 18 105 21 32 5 177 49 210 63 11 4 40 16 65 25
53 20 209 103 228 122 7 7 17 13 22 13 17 0 179 168 218 226 45 67 114 204
127 250 5 16 10 34 11 39 34 105 72 302 70 361 -1 19 2 34 6 34 14 0 -1 38
-41 104 -23 36 -41 68 -41 69 0 2 -43 74 -95 161 -52 87 -95 161 -95 164 0 3
-6 13 -14 21 -7 9 -25 36 -38 61 -14 25 -35 62 -47 83 -23 41 -52 92 -73 128
-7 13 -16 26 -19 29 -3 3 -11 20 -18 38 -16 39 -31 41 -32 5 -1 -16 -2 -32 -3
-38 -2 -18 -56 -119 -74 -140 -21 -25 -87 -74 -127 -96 -40 -22 -135 -50 -146
-43 -5 3 -9 2 -9 -3 0 -4 -16 -8 -35 -8 -19 0 -35 3 -35 7 0 4 -7 5 -17 1 -24
-10 -12 41 37 143 22 46 40 89 40 94 0 5 -26 -10 -57 -34 -54 -40 -203 -122
-203 -111 0 2 -12 0 -27 -6 -40 -15 -59 -18 -143 -24 -126 -8 -191 -16 -244
-30 -28 -7 -52 -13 -53 -12 -1 1 18 31 42 67 25 36 59 99 76 140 37 90 87 182
103 192 6 4 7 8 3 8 -4 0 6 14 23 30 17 16 28 30 24 30 -4 0 6 10 22 22 16 13
35 28 42 35 8 8 30 26 50 41 21 15 39 29 42 33 3 3 16 13 30 23 l25 18 -40 -7
c-74 -14 -133 -19 -187 -16 l-26 1 25 47 c87 165 223 266 356 266 34 0 81 -7
105 -16 23 -8 42 -13 42 -11 0 2 -11 23 -23 46 -39 70 -101 187 -152 283 -62
117 -160 280 -197 327 -17 21 -44 42 -66 49 -20 6 -43 16 -49 22 -7 5 -13 7
-13 3 0 -3 -12 -1 -27 5 -16 6 -35 12 -43 15 -8 2 -67 17 -130 33 -63 16 -131
32 -150 34 -19 3 -35 6 -35 7 0 9 -311 19 -326 10 -7 -5 -20 -5 -30 0 -9 5
-18 7 -21 5z"/>
</g>
</svg>
