<svg width="7" height="6" viewBox="0 0 7 6" fill="none" xmlns="http://www.w3.org/2000/svg">
<path d="M3.4971 5.268C3.03977 5.268 2.61977 5.16067 2.2371 4.946C1.85444 4.722 1.54644 4.42333 1.3131 4.05C1.07977 3.67667 0.963102 3.25667 0.963102 2.79C0.963102 2.36067 1.07043 1.95933 1.2851 1.586C1.5091 1.20333 1.81244 0.895333 2.1951 0.662C2.57777 0.419333 3.01177 0.298 3.4971 0.298C3.9451 0.298 4.36043 0.405333 4.7431 0.62C5.1351 0.834666 5.44777 1.13333 5.6811 1.516C5.91444 1.88933 6.0311 2.314 6.0311 2.79C6.0311 3.24733 5.91444 3.66267 5.6811 4.036C5.4571 4.40933 5.15377 4.708 4.7711 4.932C4.38844 5.156 3.96377 5.268 3.4971 5.268Z" fill="#7F7E7F"/>
</svg>
