<svg xmlns="http://www.w3.org/2000/svg" width="24" height="24" viewBox="0 0 24 24" fill="none">
  <path d="M9.87842 7.56223C11.2201 7.56233 12.5066 8.09611 13.4556 9.04465V9.04367C13.9416 9.53093 14.3239 10.1123 14.5786 10.7517C14.8333 11.391 14.9558 12.0754 14.938 12.7634C14.9328 12.9457 14.8547 13.1186 14.7222 13.2439C14.5897 13.369 14.4131 13.4364 14.231 13.4314C14.0487 13.4262 13.8758 13.349 13.7505 13.2165C13.6252 13.084 13.5579 12.9067 13.563 12.7243C13.585 11.9859 13.3838 11.2575 12.9868 10.6345C12.5898 10.0116 12.0149 9.52217 11.3364 9.23019C10.6577 8.93815 9.9066 8.85665 9.18115 8.9968C8.45573 9.13695 7.78913 9.49252 7.26807 10.0163L4.01611 13.2741C3.50128 13.7892 3.15041 14.4456 3.0083 15.1599C2.86631 15.8739 2.93898 16.6141 3.21729 17.2868C3.4958 17.9598 3.96838 18.5352 4.57373 18.9402C5.10328 19.2944 5.71395 19.5051 6.34619 19.5525L6.61865 19.5622C7.10414 19.5641 7.58509 19.4696 8.03369 19.2839C8.48228 19.0982 8.88977 18.8256 9.23193 18.4812L10.2612 17.4509C10.3932 17.3429 10.5615 17.2881 10.7319 17.2966C10.9035 17.3053 11.0653 17.3785 11.186 17.5007C11.3067 17.623 11.3778 17.786 11.3843 17.9577C11.3906 18.1278 11.3333 18.2941 11.2241 18.4245L10.1929 19.4558C9.7241 19.927 9.16637 20.3011 8.55225 20.5554C7.9382 20.8096 7.27933 20.9391 6.61475 20.9372C5.61493 20.9362 4.63804 20.6388 3.80713 20.0827C2.97605 19.5265 2.32795 18.7364 1.9458 17.8122C1.56366 16.8881 1.46417 15.8711 1.65967 14.8904C1.85518 13.9097 2.33727 13.0094 3.04443 12.3025L6.30029 9.04465C7.24934 8.09601 8.53655 7.56223 9.87842 7.56223ZM17.3765 3.06125C18.0412 3.06125 18.6998 3.19255 19.314 3.44699C19.9278 3.70136 20.4858 4.0738 20.9556 4.54367C21.4424 5.03167 21.8249 5.61413 22.0796 6.25461C22.3343 6.89512 22.4567 7.58118 22.438 8.27023C22.4007 9.55968 21.8696 10.7858 20.9556 11.696L17.6978 14.9558C17.2291 15.427 16.6721 15.8011 16.0581 16.0554C15.4441 16.3097 14.7852 16.4391 14.1206 16.4372H14.1157C13.4398 16.4367 12.7704 16.3012 12.1479 16.0378C11.5256 15.7745 10.9627 15.3886 10.4917 14.904C10.0206 14.4192 9.65116 13.8444 9.40576 13.2146C9.16049 12.5849 9.0441 11.9125 9.06299 11.237C9.06812 11.0547 9.14528 10.8819 9.27783 10.7566C9.41031 10.6313 9.58682 10.5631 9.76904 10.5681C9.95138 10.5732 10.1242 10.6514 10.2495 10.7839C10.3747 10.9164 10.443 11.0929 10.438 11.2751C10.4241 11.767 10.5085 12.257 10.687 12.7155C10.8656 13.1742 11.135 13.593 11.478 13.946C11.8209 14.2989 12.2309 14.5795 12.6841 14.7712C13.1374 14.963 13.6245 15.0619 14.1167 15.0622C14.6005 15.0635 15.0798 14.969 15.5269 14.7839C15.9738 14.5988 16.3799 14.327 16.7212 13.9841L19.98 10.7253C20.6634 10.033 21.0455 9.09851 21.0425 8.1257C21.0394 7.15263 20.6514 6.22002 19.9634 5.53195C19.2753 4.84389 18.3427 4.4559 17.3696 4.45285C16.3968 4.44984 15.4623 4.83192 14.77 5.51535L13.7388 6.5466C13.6089 6.66974 13.4362 6.73725 13.2573 6.73508C13.0781 6.73278 12.9066 6.66061 12.7798 6.53391C12.653 6.40713 12.5809 6.23564 12.5786 6.05637C12.5764 5.87781 12.6425 5.70468 12.7651 5.57492L12.7661 5.5759L13.7974 4.54465C14.2673 4.07451 14.8258 3.70144 15.4399 3.44699C16.054 3.19264 16.7119 3.06127 17.3765 3.06125Z" fill="black" stroke="#292929" stroke-width="0.125"/>
</svg>