<svg xmlns="http://www.w3.org/2000/svg" width="17" height="21" viewBox="0 0 17 21" fill="none">
  <path d="M8.25 0.0625C10.4207 0.0649813 12.5022 0.927973 14.0371 2.46289C15.572 3.99781 16.435 6.0793 16.4375 8.25C16.4375 11.1742 15.0825 14.2803 12.5156 17.2324C11.363 18.5659 10.0628 19.7669 8.64453 20.8135C8.52955 20.8932 8.39387 20.9375 8.25391 20.9375C8.14812 20.9375 8.04427 20.9125 7.9502 20.8662L7.85938 20.8125C6.6167 19.8974 5.46639 18.8639 4.4248 17.7266L3.98438 17.2324C1.41383 14.2803 0.0625 11.1742 0.0625 8.25L0.0732422 7.84375C0.17586 5.82105 1.024 3.90178 2.46289 2.46289C3.90178 1.024 5.82105 0.17586 7.84375 0.0732422L8.25 0.0625ZM8.25 1.4375C6.44321 1.4375 4.71021 2.15503 3.43262 3.43262C2.15503 4.71021 1.4375 6.44321 1.4375 8.25C1.4375 10.9534 2.7466 13.4277 4.24414 15.375C5.74209 17.3228 7.43385 18.7502 8.21094 19.3613L8.25 19.3916L8.28906 19.3613C9.06616 18.7501 10.7579 17.322 12.2559 15.374C13.7533 13.4265 15.0625 10.9523 15.0625 8.25C15.0625 6.44321 14.345 4.71021 13.0674 3.43262C11.7898 2.15503 10.0568 1.4375 8.25 1.4375ZM8.25 4.5625C9.22799 4.5625 10.1659 4.95104 10.8574 5.64258C11.549 6.33412 11.9375 7.27201 11.9375 8.25C11.9375 8.9793 11.7216 9.69243 11.3164 10.2988C10.9112 10.9052 10.3349 11.3781 9.66113 11.6572C8.98737 11.9363 8.24552 12.0085 7.53027 11.8662C6.81512 11.7239 6.15819 11.373 5.64258 10.8574C5.12697 10.3418 4.77612 9.68488 4.63379 8.96973C4.49152 8.25448 4.56373 7.51263 4.84277 6.83887C5.12187 6.16506 5.59477 5.58878 6.20117 5.18359C6.80757 4.77843 7.5207 4.5625 8.25 4.5625ZM9.13477 6.11328C8.71228 5.93834 8.24732 5.89321 7.79883 5.98242C7.35029 6.07167 6.93862 6.29185 6.61523 6.61523C6.29185 6.93862 6.07167 7.35029 5.98242 7.79883C5.89321 8.24732 5.93834 8.71228 6.11328 9.13477C6.28827 9.55723 6.58467 9.91876 6.96484 10.1729C7.34513 10.427 7.79263 10.5625 8.25 10.5625C8.86331 10.5625 9.45109 10.3184 9.88477 9.88477C10.3184 9.45109 10.5625 8.86331 10.5625 8.25C10.5625 7.79263 10.427 7.34513 10.1729 6.96484C9.91876 6.58467 9.55723 6.28827 9.13477 6.11328Z" fill="black" stroke="#292929" stroke-width="0.125"/>
</svg>