<svg width="16" height="20" viewBox="0 0 16 20" fill="none" xmlns="http://www.w3.org/2000/svg">
<path d="M3.975 16.2502C3.80834 15.7669 3.65434 15.2752 3.513 14.7752C3.37167 14.2752 3.259 13.7752 3.175 13.2752L2 14.0752V17.0502L3.975 16.2502ZM7.65 2.8752C6.85 3.7252 6.20834 4.8462 5.725 6.2382C5.24167 7.6302 5 9.09253 5 10.6252C5 11.6252 5.09167 12.6045 5.275 13.5632C5.45834 14.5219 5.7 15.3342 6 16.0002H10C10.3 15.3335 10.5417 14.5209 10.725 13.5622C10.9083 12.6035 11 11.6249 11 10.6262C11 9.09286 10.7583 7.6302 10.275 6.2382C9.79167 4.8462 9.15 3.72553 8.35 2.8762C8.3 2.8262 8.246 2.78853 8.188 2.7632C8.13 2.73786 8.06734 2.72553 8 2.7262C7.93334 2.7262 7.87067 2.73886 7.812 2.7642C7.75334 2.78953 7.69934 2.82586 7.65 2.8752ZM8 11.0002C7.45 11.0002 6.979 10.8042 6.587 10.4122C6.195 10.0202 5.99934 9.54953 6 9.0002C6 8.4502 6.196 7.9792 6.588 7.5872C6.98 7.1952 7.45067 6.99953 8 7.0002C8.55 7.0002 9.021 7.1962 9.413 7.5882C9.805 7.9802 10.0007 8.45086 10 9.0002C10 9.5502 9.804 10.0212 9.412 10.4132C9.02 10.8052 8.54934 11.0009 8 11.0002ZM12.025 16.2502L14 17.0502V14.0752L12.825 13.2752C12.7417 13.7752 12.629 14.2752 12.487 14.7752C12.345 15.2752 12.191 15.7669 12.025 16.2502ZM8.775 0.600195C10.175 1.8002 11.2293 3.2752 11.938 5.0252C12.6467 6.7752 13.0007 8.76686 13 11.0002L15.1 12.4002C15.3833 12.5835 15.6043 12.8252 15.763 13.1252C15.9217 13.4252 16.0007 13.7419 16 14.0752V18.5252C16 18.8752 15.8543 19.1502 15.563 19.3502C15.2717 19.5502 14.959 19.5835 14.625 19.4502L11.025 18.0002H4.975L1.375 19.4502C1.04167 19.5835 0.729002 19.5502 0.437002 19.3502C0.145002 19.1502 -0.000664389 18.8752 2.27791e-06 18.5252V14.0752C2.27791e-06 13.7419 0.0793355 13.4252 0.238002 13.1252C0.396669 12.8252 0.617336 12.5835 0.900002 12.4002L3 11.0002C3 8.76686 3.35434 6.7752 4.063 5.0252C4.77167 3.2752 5.82534 1.8002 7.224 0.600195C7.34067 0.516862 7.46567 0.450195 7.599 0.400195C7.73234 0.350195 7.86567 0.325195 7.999 0.325195C8.13234 0.325195 8.26567 0.350195 8.399 0.400195C8.53234 0.450195 8.65833 0.516862 8.775 0.600195Z" fill="#676767"/>
</svg>
