<svg width="16" height="15" viewBox="0 0 16 15" fill="none" xmlns="http://www.w3.org/2000/svg">
<path d="M14.2744 7.99493C14.152 7.85809 14.0845 7.68216 14.0845 7.5C14.0845 7.31784 14.152 7.14192 14.2744 7.00507L15.2516 5.92521C15.3593 5.80723 15.4261 5.65878 15.4426 5.50115C15.459 5.34353 15.4242 5.18483 15.3432 5.04783L13.8164 2.45319C13.7362 2.31635 13.614 2.20788 13.4673 2.14324C13.3206 2.07861 13.1569 2.06111 12.9995 2.09324L11.5643 2.3782C11.3817 2.41526 11.1916 2.38539 11.0299 2.29421C10.8681 2.20303 10.746 2.05685 10.6864 1.88326L10.2208 0.510951C10.1695 0.362005 10.072 0.232637 9.94183 0.141132C9.81169 0.0496274 9.65557 0.000614014 9.49552 0.00101983H6.44191C6.27544 -0.00751554 6.1107 0.0377096 5.97285 0.129788C5.835 0.221866 5.73162 0.355736 5.67851 0.510951L5.251 1.88326C5.19146 2.05685 5.06929 2.20303 4.90756 2.29421C4.74582 2.38539 4.55571 2.41526 4.37309 2.3782L2.89972 2.09324C2.75051 2.07252 2.5984 2.09565 2.46256 2.15971C2.32671 2.22376 2.21319 2.32588 2.13632 2.45319L0.609511 5.04783C0.526422 5.1833 0.489063 5.34111 0.502774 5.49869C0.516485 5.65627 0.580564 5.80556 0.685851 5.92521L1.65537 7.00507C1.77776 7.14192 1.84526 7.31784 1.84526 7.5C1.84526 7.68216 1.77776 7.85809 1.65537 7.99493L0.685851 9.07479C0.580564 9.19444 0.516485 9.34373 0.502774 9.50131C0.489063 9.65889 0.526422 9.8167 0.609511 9.95217L2.13632 12.5468C2.21655 12.6837 2.33871 12.7921 2.48538 12.8568C2.63206 12.9214 2.79576 12.9389 2.95316 12.9068L4.38836 12.6218C4.57098 12.5847 4.76109 12.6146 4.92282 12.7058C5.08456 12.797 5.20673 12.9431 5.26627 13.1167L5.73195 14.489C5.78506 14.6443 5.88844 14.7781 6.02629 14.8702C6.16413 14.9623 6.32888 15.0075 6.49535 14.999H9.54896C9.709 14.9994 9.86513 14.9504 9.99527 14.8589C10.1254 14.7674 10.223 14.638 10.2742 14.489L10.7399 13.1167C10.7994 12.9431 10.9216 12.797 11.0833 12.7058C11.245 12.6146 11.4352 12.5847 11.6178 12.6218L13.053 12.9068C13.2104 12.9389 13.3741 12.9214 13.5208 12.8568C13.6674 12.7921 13.7896 12.6837 13.8698 12.5468L15.3966 9.95217C15.4777 9.81517 15.5125 9.65647 15.496 9.49885C15.4796 9.34122 15.4127 9.19277 15.305 9.07479L14.2744 7.99493ZM13.137 8.9998L13.7477 9.6747L12.7705 11.3395L11.8697 11.1595C11.3199 11.0491 10.7479 11.1408 10.2624 11.4173C9.77693 11.6938 9.41166 12.1357 9.23597 12.6593L8.94587 13.4992H6.99156L6.71673 12.6443C6.54104 12.1208 6.17577 11.6788 5.69027 11.4023C5.20476 11.1258 4.63281 11.0341 4.08299 11.1445L3.18218 11.3245L2.18976 9.66721L2.80048 8.9923C3.17604 8.57984 3.38367 8.04587 3.38367 7.4925C3.38367 6.93913 3.17604 6.40517 2.80048 5.9927L2.18976 5.3178L3.16691 3.66802L4.06773 3.848C4.61755 3.9584 5.18949 3.86665 5.675 3.59018C6.1605 3.31371 6.52577 2.87175 6.70147 2.3482L6.99156 1.50082H8.94587L9.23597 2.3557C9.41166 2.87925 9.77693 3.32121 10.2624 3.59768C10.7479 3.87415 11.3199 3.9659 11.8697 3.8555L12.7705 3.67552L13.7477 5.34029L13.137 6.0152C12.7656 6.42672 12.5606 6.95759 12.5606 7.5075C12.5606 8.05741 12.7656 8.58828 13.137 8.9998ZM7.96872 4.50041C7.36477 4.50041 6.77438 4.67633 6.27222 5.00593C5.77006 5.33553 5.37867 5.804 5.14755 6.35211C4.91643 6.90021 4.85595 7.50333 4.97378 8.08519C5.0916 8.66706 5.38243 9.20153 5.80949 9.62103C6.23654 10.0405 6.78064 10.3262 7.37299 10.442C7.96533 10.5577 8.57931 10.4983 9.13728 10.2713C9.69526 10.0442 10.1722 9.65977 10.5077 9.16648C10.8432 8.6732 11.0223 8.09326 11.0223 7.5C11.0223 6.70446 10.7006 5.9415 10.1279 5.37897C9.55528 4.81644 8.77858 4.50041 7.96872 4.50041ZM7.96872 8.9998C7.66674 8.9998 7.37155 8.91183 7.12047 8.74704C6.86939 8.58224 6.67369 8.348 6.55813 8.07395C6.44257 7.7999 6.41233 7.49834 6.47125 7.20741C6.53016 6.91647 6.67557 6.64923 6.8891 6.43948C7.10263 6.22973 7.37468 6.08689 7.67085 6.02902C7.96702 5.97115 8.27401 6.00085 8.553 6.11437C8.83199 6.22789 9.07044 6.42012 9.23821 6.66676C9.40598 6.9134 9.49552 7.20337 9.49552 7.5C9.49552 7.89777 9.33466 8.27925 9.04833 8.56052C8.762 8.84178 8.37365 8.9998 7.96872 8.9998Z" fill="#474747"/>
</svg>
