<svg width="20" height="18" viewBox="0 0 20 18" fill="none" xmlns="http://www.w3.org/2000/svg">
<path d="M13 5V3C13 2.46957 12.7893 1.96086 12.4142 1.58579C12.0391 1.21071 11.5304 1 11 1H9C8.46957 1 7.96086 1.21071 7.58579 1.58579C7.21071 1.96086 7 2.46957 7 3V5M13 5H17C17.5304 5 18.0391 5.21071 18.4142 5.58579C18.7893 5.96086 19 6.46957 19 7V15C19 15.5304 18.7893 16.0391 18.4142 16.4142C18.0391 16.7893 17.5304 17 17 17H3C2.46957 17 1.96086 16.7893 1.58579 16.4142C1.21071 16.0391 1 15.5304 1 15V7C1 6.46957 1.21071 5.96086 1.58579 5.58579C1.96086 5.21071 2.46957 5 3 5H7M13 5H7" stroke="#7F7E7F" stroke-width="2" stroke-linecap="round" stroke-linejoin="round"/>
</svg>
