<svg xmlns="http://www.w3.org/2000/svg" width="24" height="25" viewBox="0 0 24 25" fill="none">
  <path d="M14.975 11.5039L12.875 9.40391L7.725 14.5539C7.625 14.6539 7.55 14.7666 7.5 14.8919C7.45 15.0172 7.425 15.1462 7.425 15.2789V16.4539C7.425 16.5872 7.475 16.7039 7.575 16.8039C7.675 16.9039 7.79167 16.9539 7.925 16.9539H9.1C9.23333 16.9539 9.36267 16.9289 9.488 16.8789C9.61333 16.8289 9.72567 16.7539 9.825 16.6539L14.975 11.5039ZM15.575 10.9039L16.275 10.2039C16.475 10.0039 16.575 9.77057 16.575 9.50391C16.575 9.23724 16.475 9.00391 16.275 8.80391L15.575 8.10391C15.375 7.90391 15.1417 7.80391 14.875 7.80391C14.6083 7.80391 14.375 7.90391 14.175 8.10391L13.475 8.80391L15.575 10.9039ZM12 22.3789C10.6167 22.3789 9.31667 22.1162 8.1 21.5909C6.88333 21.0656 5.825 20.3532 4.925 19.4539C4.025 18.5539 3.31267 17.4956 2.788 16.2789C2.26333 15.0622 2.00067 13.7622 2 12.3789C2 10.9956 2.26267 9.69557 2.788 8.47891C3.31333 7.26224 4.02567 6.20391 4.925 5.30391C5.825 4.40391 6.88333 3.69157 8.1 3.16691C9.31667 2.64224 10.6167 2.37957 12 2.37891C13.3833 2.37891 14.6833 2.64157 15.9 3.16691C17.1167 3.69224 18.175 4.40457 19.075 5.30391C19.975 6.20391 20.6877 7.26224 21.213 8.47891C21.7383 9.69557 22.0007 10.9956 22 12.3789C22 13.7622 21.7373 15.0622 21.212 16.2789C20.6867 17.4956 19.9743 18.5539 19.075 19.4539C18.175 20.3539 17.1167 21.0666 15.9 21.5919C14.6833 22.1172 13.3833 22.3796 12 22.3789ZM12 20.3789C14.2333 20.3789 16.125 19.6039 17.675 18.0539C19.225 16.5039 20 14.6122 20 12.3789C20 10.1456 19.225 8.25391 17.675 6.70391C16.125 5.15391 14.2333 4.37891 12 4.37891C9.76667 4.37891 7.875 5.15391 6.325 6.70391C4.775 8.25391 4 10.1456 4 12.3789C4 14.6122 4.775 16.5039 6.325 18.0539C7.875 19.6039 9.76667 20.3789 12 20.3789Z" fill="#1C1C1C"/>
</svg>