<svg xmlns="http://www.w3.org/2000/svg" width="24" height="24" viewBox="0 0 24 24" fill="none">
  <path d="M12.9297 5.59326C15.4127 3.11143 18.4049 3.0039 19.5762 3.07373C19.9264 3.09506 20.2567 3.24372 20.5049 3.4917C20.7222 3.70905 20.8641 3.98987 20.9102 4.2915L20.9238 4.42139C20.9937 5.59363 20.8861 8.58589 18.4033 11.0688L17.9375 11.5347V17.0288C17.9386 17.2182 17.9022 17.4064 17.8301 17.5815C17.758 17.7566 17.6516 17.9157 17.5176 18.0493L14.2998 21.2651C14.1667 21.3987 14.0082 21.5045 13.834 21.5767C13.6598 21.6488 13.4727 21.6864 13.2842 21.686C13.1676 21.686 13.0514 21.6719 12.9385 21.644L12.8262 21.6108L12.6416 21.5356C12.4633 21.4476 12.3041 21.3233 12.1758 21.1694C12.0047 20.9644 11.8945 20.7151 11.8574 20.4507L11.3545 16.8423L11.3516 16.8218L11.3369 16.8062L7.19141 12.6616L7.17676 12.647L7.15625 12.644L3.5498 12.1411C3.28526 12.1037 3.03635 11.9928 2.83105 11.8218C2.62579 11.6508 2.47232 11.4258 2.3877 11.1724C2.30315 10.919 2.29023 10.6471 2.35156 10.3872C2.41289 10.1273 2.54554 9.8895 2.73438 9.70068H2.73535L5.9502 6.48291C6.08392 6.3487 6.24377 6.24258 6.41895 6.17041C6.59395 6.09836 6.78145 6.06195 6.9707 6.06299H12.4658L12.4844 6.04443L12.9297 5.59326ZM6.36816 14.4468C6.45827 14.4437 6.54836 14.4582 6.63281 14.4897C6.7173 14.5213 6.79435 14.5699 6.86035 14.6313C6.92641 14.6929 6.98011 14.767 7.01758 14.8491C7.05497 14.9312 7.07591 15.0197 7.0791 15.1099C7.08227 15.2 7.06766 15.29 7.03613 15.3745C7.00453 15.4591 6.9561 15.537 6.89453 15.603C6.86386 15.6359 6.83025 15.6657 6.79395 15.6919L6.67676 15.7603C6.05685 16.0429 4.71041 16.9445 4.47363 19.4585L4.4668 19.5337L4.54199 19.5269C7.05644 19.2899 7.95969 17.9426 8.24023 17.3228C8.2777 17.2406 8.33143 17.1665 8.39746 17.105C8.46336 17.0436 8.54068 16.9959 8.625 16.9644C8.70959 16.9328 8.80038 16.9182 8.89062 16.9214C8.98071 16.9246 9.06935 16.9455 9.15137 16.9829C9.23343 17.0204 9.30763 17.0732 9.36914 17.1392C9.43069 17.2052 9.47816 17.2831 9.50977 17.3677C9.54136 17.4522 9.5559 17.5421 9.55273 17.6323C9.54969 17.719 9.52982 17.8039 9.49512 17.8833L9.49023 17.894C9.28239 18.3493 8.83022 19.1099 7.94043 19.7563C7.05093 20.4025 5.72002 20.938 3.75 20.938C3.56768 20.938 3.39259 20.8648 3.26367 20.7358C3.13504 20.607 3.06259 20.4325 3.0625 20.2505C3.0625 18.2802 3.59792 16.9487 4.24414 16.0591C4.89076 15.169 5.65126 14.7165 6.10645 14.5083C6.1886 14.4708 6.27792 14.45 6.36816 14.4468ZM12.7285 16.7437L12.7334 16.7739L13.2197 20.2583L13.2373 20.3833L13.3262 20.2944L16.5439 17.0728L16.5625 17.0552V12.9097L12.7285 16.7437ZM19.4922 4.44482C18.4631 4.38108 17.4325 4.53845 16.4688 4.90479C15.505 5.27115 14.6302 5.83857 13.9033 6.56982L8.47266 12.0005L8.51758 12.0444L12 15.5269L12.0439 15.4829L17.4307 10.0981C18.1628 9.37099 18.731 8.49563 19.0967 7.53076C19.4624 6.56578 19.6171 5.53324 19.5508 4.50342L19.5479 4.44873L19.4922 4.44482ZM6.92676 7.45557L3.70605 10.6753L3.61719 10.7642L3.74121 10.7817L7.22559 11.2671L7.25586 11.271L7.27832 11.2495L10.9844 7.54443L11.0908 7.43799H6.94531L6.92676 7.45557Z" fill="black" stroke="#292929"  stroke-width="0.125"/>
</svg>