<svg xmlns="http://www.w3.org/2000/svg" width="20" height="18" viewBox="0 0 20 18" fill="none">
  <path d="M7.5 0.0625H12C12.5802 0.0625 13.1366 0.292889 13.5469 0.703125C13.9571 1.11336 14.1875 1.66984 14.1875 2.25V3.0625H18C18.3812 3.0625 18.747 3.21382 19.0166 3.4834C19.2862 3.75298 19.4375 4.11875 19.4375 4.5V16.5C19.4375 16.8812 19.2862 17.247 19.0166 17.5166C18.747 17.7862 18.3812 17.9375 18 17.9375H1.5C1.11875 17.9375 0.752982 17.7862 0.483398 17.5166C0.213815 17.247 0.0625 16.8812 0.0625 16.5V4.5C0.0625 4.11875 0.213815 3.75298 0.483398 3.4834C0.752982 3.21382 1.11875 3.0625 1.5 3.0625H5.3125V2.25C5.3125 1.66984 5.54289 1.11336 5.95312 0.703125C6.36336 0.292889 6.91984 0.0625 7.5 0.0625ZM1.4375 16.5625H5.3125V4.4375H1.4375V16.5625ZM6.6875 16.5625H12.8125V4.4375H6.6875V16.5625ZM14.1875 16.5625H18.0625V4.4375H14.1875V16.5625ZM7.5 1.4375C7.28451 1.4375 7.07815 1.52341 6.92578 1.67578C6.77341 1.82815 6.6875 2.03451 6.6875 2.25V3.0625H12.8125V2.25C12.8125 2.03451 12.7266 1.82815 12.5742 1.67578C12.4218 1.52341 12.2155 1.4375 12 1.4375H7.5Z" fill="black" stroke="#292929"  stroke-width="0.125"/>
</svg>