<svg xmlns="http://www.w3.org/2000/svg" width="24" height="25" viewBox="0 0 24 25" fill="none">
  <path d="M7 21.3789C6.45 21.3789 5.979 21.1829 5.587 20.7909C5.195 20.3989 4.99934 19.9282 5 19.3789V6.37891C4.71667 6.37891 4.479 6.28291 4.287 6.09091C4.095 5.89891 3.99934 5.66158 4 5.37891C4 5.09558 4.096 4.85791 4.288 4.66591C4.48 4.47391 4.71734 4.37824 5 4.37891H9C9 4.09558 9.096 3.85791 9.288 3.66591C9.48 3.47391 9.71734 3.37824 10 3.37891H14C14.2833 3.37891 14.521 3.47491 14.713 3.66691C14.905 3.85891 15.0007 4.09624 15 4.37891H19C19.2833 4.37891 19.521 4.47491 19.713 4.66691C19.905 4.85891 20.0007 5.09624 20 5.37891C20 5.66224 19.904 5.89991 19.712 6.09191C19.52 6.28391 19.2827 6.37958 19 6.37891V19.3789C19 19.9289 18.804 20.3999 18.412 20.7919C18.02 21.1839 17.5493 21.3796 17 21.3789H7ZM7 6.37891V19.3789H17V6.37891H7ZM9 16.3789C9 16.6622 9.096 16.8999 9.288 17.0919C9.48 17.2839 9.71734 17.3796 10 17.3789C10.2833 17.3789 10.521 17.2829 10.713 17.0909C10.905 16.8989 11.0007 16.6616 11 16.3789V9.37891C11 9.09558 10.904 8.85791 10.712 8.66591C10.52 8.47391 10.2827 8.37824 10 8.37891C9.71667 8.37891 9.479 8.47491 9.287 8.66691C9.095 8.85891 8.99934 9.09624 9 9.37891V16.3789ZM13 16.3789C13 16.6622 13.096 16.8999 13.288 17.0919C13.48 17.2839 13.7173 17.3796 14 17.3789C14.2833 17.3789 14.521 17.2829 14.713 17.0909C14.905 16.8989 15.0007 16.6616 15 16.3789V9.37891C15 9.09558 14.904 8.85791 14.712 8.66591C14.52 8.47391 14.2827 8.37824 14 8.37891C13.7167 8.37891 13.479 8.47491 13.287 8.66691C13.095 8.85891 12.9993 9.09624 13 9.37891V16.3789Z" fill="#111111"/>
</svg>