<svg width="20" height="20" viewBox="0 0 20 20" fill="none" xmlns="http://www.w3.org/2000/svg">
<g id="archive">
<path id="Vector" d="M3.33464 6.66667V15.8333C3.33464 16.2754 3.51023 16.6993 3.82279 17.0118C4.13535 17.3244 4.55927 17.5 5.0013 17.5H15.0013C15.4433 17.5 15.8673 17.3244 16.1798 17.0118C16.4924 16.6993 16.668 16.2754 16.668 15.8333V6.66667M8.33464 10H11.668M2.5013 2.5H17.5013C17.9615 2.5 18.3346 2.8731 18.3346 3.33333V5.83333C18.3346 6.29357 17.9615 6.66667 17.5013 6.66667H2.5013C2.04106 6.66667 1.66797 6.29357 1.66797 5.83333V3.33333C1.66797 2.8731 2.04106 2.5 2.5013 2.5Z" stroke="#1C1C1C" stroke-width="2" stroke-linecap="round" stroke-linejoin="round"/>
</g>
</svg>
