<svg width="22" height="21" viewBox="0 0 22 21" fill="none" xmlns="http://www.w3.org/2000/svg">
<path d="M20.1256 10.0664C20.1291 11.3863 19.8145 12.6883 19.2074 13.8664C18.4875 15.2782 17.3808 16.4656 16.0113 17.2957C14.6418 18.1258 13.0635 18.5658 11.4533 18.5664C10.1067 18.5699 8.77828 18.2615 7.57628 17.6664L1.76074 19.5664L3.69926 13.8664C3.09212 12.6883 2.7775 11.3863 2.78101 10.0664C2.78164 8.48819 3.23056 6.94129 4.07749 5.59898C4.92442 4.25668 6.13592 3.172 7.57628 2.46643C8.77828 1.87137 10.1067 1.56299 11.4533 1.56643H11.9634C14.09 1.68143 16.0986 2.5612 17.6047 4.03729C19.1107 5.51339 20.0083 7.48209 20.1256 9.56643V10.0664Z" stroke="black" stroke-width="2" stroke-linecap="round" stroke-linejoin="round"/>
</svg>
