<svg width="40" height="40" viewBox="0 0 40 40" fill="none" xmlns="http://www.w3.org/2000/svg">
<g id="heart-handshake">
<path id="Vector" d="M19.9987 8.33333C22.4987 5.83333 24.5654 5 27.4987 5C29.9299 5 32.2614 5.96577 33.9805 7.68485C35.6996 9.40394 36.6654 11.7355 36.6654 14.1667C36.6654 17.9833 34.1487 20.9 31.6654 23.3333L19.9987 35L8.33203 23.3333C5.83203 20.9167 3.33203 18 3.33203 14.1667C3.33203 11.7355 4.2978 9.40394 6.01689 7.68485C7.73597 5.96577 10.0675 5 12.4987 5C15.432 5 17.4987 5.83333 19.9987 8.33333ZM19.9987 8.33333L15.0655 13.2667C14.7269 13.6028 14.4581 14.0027 14.2747 14.4432C14.0913 14.8837 13.9969 15.3562 13.9969 15.8333C13.9969 16.3105 14.0913 16.7829 14.2747 17.2235C14.4581 17.664 14.7269 18.0638 15.0655 18.4C16.4322 19.7667 18.6155 19.8167 20.0655 18.5167L23.5155 15.35C24.3803 14.5653 25.5062 14.1307 26.6739 14.1307C27.8416 14.1307 28.9674 14.5653 29.8322 15.35L34.7655 19.7833M29.9987 25L26.6654 21.6667M24.9987 30L21.6654 26.6667" stroke="#3F1F5F" stroke-width="2" stroke-linecap="round" stroke-linejoin="round"/>
</g>
</svg>
