    <!-- <svg width="40" height="40" viewBox="0 0 40 40" fill="none" xmlns="http://www.w3.org/2000/svg">
    <g id="lightbulb">
    <path id="Vector" d="M25 23.333C25.3333 21.6663 26.1667 20.4997 27.5 19.1663C29.1667 17.6663 30 15.4997 30 13.333C30 10.6808 28.9464 8.1373 27.0711 6.26194C25.1957 4.38658 22.6522 3.33301 20 3.33301C17.3478 3.33301 14.8043 4.38658 12.9289 6.26194C11.0536 8.1373 10 10.6808 10 13.333C10 14.9997 10.3333 16.9997 12.5 19.1663C13.6667 20.333 14.6667 21.6663 15 23.333M15 29.9997H25M16.6667 36.6663H23.3333" stroke="currentColor" stroke-width="2" stroke-linecap="round" stroke-linejoin="round"/>
    </g>
    </svg> -->

  <svg
    width="40"
    height="40"
    viewBox="0 0 40 40"
    fill="none"
    xmlns="http://www.w3.org/2000/svg"
    className="group-hover:text-white"
  >
    <g id="lightbulb">
      <path
        id="Vector"
        d="M25 23.333C25.3333 21.6663 26.1667 20.4997 27.5 19.1663C29.1667 17.6663 30 15.4997 30 13.333C30 10.6808 28.9464 8.1373 27.0711 6.26194C25.1957 4.38658 22.6522 3.33301 20 3.33301C17.3478 3.33301 14.8043 4.38658 12.9289 6.26194C11.0536 8.1373 10 10.6808 10 13.333C10 14.9997 10.3333 16.9997 12.5 19.1663C13.6667 20.333 14.6667 21.6663 15 23.333M15 29.9997H25M16.6667 36.6663H23.3333"
        stroke="currentColor"
        strokeWidth="2"
        strokeLinecap="round"
        strokeLinejoin="round"
      />
    </g>
  </svg>