<svg width="24" height="25" viewBox="0 0 24 25" fill="none" xmlns="http://www.w3.org/2000/svg">
<path d="M12 2C6.20156 2 1.5 6.70156 1.5 12.5C1.5 18.2984 6.20156 23 12 23C17.7984 23 22.5 18.2984 22.5 12.5C22.5 6.70156 17.7984 2 12 2ZM12 21.2188C7.18594 21.2188 3.28125 17.3141 3.28125 12.5C3.28125 7.68594 7.18594 3.78125 12 3.78125C16.8141 3.78125 20.7188 7.68594 20.7188 12.5C20.7188 17.3141 16.8141 21.2188 12 21.2188Z" fill="black"/>
<path d="M14.6156 7.92266C13.9125 7.30625 12.9844 6.96875 12 6.96875C11.0156 6.96875 10.0875 7.30859 9.38437 7.92266C8.65312 8.5625 8.25 9.42266 8.25 10.3438V10.5219C8.25 10.625 8.33437 10.7094 8.4375 10.7094H9.5625C9.66562 10.7094 9.75 10.625 9.75 10.5219V10.3438C9.75 9.31016 10.7602 8.46875 12 8.46875C13.2398 8.46875 14.25 9.31016 14.25 10.3438C14.25 11.0727 13.7344 11.7406 12.9352 12.0477C12.4383 12.2375 12.0164 12.5703 11.7141 13.0062C11.407 13.4516 11.2477 13.9859 11.2477 14.5273V15.0312C11.2477 15.1344 11.332 15.2188 11.4352 15.2188H12.5602C12.6633 15.2188 12.7477 15.1344 12.7477 15.0312V14.4992C12.7489 14.2717 12.8186 14.0498 12.9478 13.8625C13.077 13.6752 13.2596 13.5312 13.4719 13.4492C14.8547 12.9172 15.7477 11.6984 15.7477 10.3438C15.75 9.42266 15.3469 8.5625 14.6156 7.92266ZM11.0625 17.6562C11.0625 17.9049 11.1613 18.1433 11.3371 18.3192C11.5129 18.495 11.7514 18.5938 12 18.5938C12.2486 18.5938 12.4871 18.495 12.6629 18.3192C12.8387 18.1433 12.9375 17.9049 12.9375 17.6562C12.9375 17.4076 12.8387 17.1692 12.6629 16.9933C12.4871 16.8175 12.2486 16.7188 12 16.7188C11.7514 16.7188 11.5129 16.8175 11.3371 16.9933C11.1613 17.1692 11.0625 17.4076 11.0625 17.6562Z" fill="black"/>
</svg>
