<svg width="18" height="18" viewBox="0 0 18 18" fill="none" xmlns="http://www.w3.org/2000/svg">
<g id="center-icon">
<path id="Vector" d="M6.44238 10.1325L11.5649 13.1175M11.5574 4.88251L6.44238 7.86751M15.75 3.75C15.75 4.99264 14.7426 6 13.5 6C12.2574 6 11.25 4.99264 11.25 3.75C11.25 2.50736 12.2574 1.5 13.5 1.5C14.7426 1.5 15.75 2.50736 15.75 3.75ZM6.75 9C6.75 10.2426 5.74264 11.25 4.5 11.25C3.25736 11.25 2.25 10.2426 2.25 9C2.25 7.75736 3.25736 6.75 4.5 6.75C5.74264 6.75 6.75 7.75736 6.75 9ZM15.75 14.25C15.75 15.4926 14.7426 16.5 13.5 16.5C12.2574 16.5 11.25 15.4926 11.25 14.25C11.25 13.0074 12.2574 12 13.5 12C14.7426 12 15.75 13.0074 15.75 14.25Z" stroke="#1C1C1C" stroke-width="2" stroke-linecap="round" stroke-linejoin="round"/>
</g>
</svg>
