<svg width="18" height="17" viewBox="0 0 18 17" fill="none" xmlns="http://www.w3.org/2000/svg">
<path d="M9.38173 14.1723L13.7463 16.8884C14.3042 17.2355 14.9969 16.7192 14.8314 16.0795L13.5703 11.2071C13.5348 11.0714 13.539 10.9286 13.5825 10.7951C13.6259 10.6617 13.7068 10.543 13.8159 10.4527L17.7298 7.25296C18.2441 6.83253 17.9786 5.99422 17.3179 5.9521L12.2066 5.62627C12.0689 5.61661 11.9369 5.56873 11.8258 5.48821C11.7148 5.40769 11.6293 5.29785 11.5794 5.17147L9.67308 0.456261C9.62126 0.322118 9.52913 0.206632 9.40891 0.125138C9.28869 0.0436446 9.14607 0 9 0C8.85393 0 8.71132 0.0436446 8.59109 0.125138C8.47087 0.206632 8.37874 0.322118 8.32692 0.456261L6.42062 5.17147C6.37068 5.29785 6.2852 5.40769 6.17416 5.48821C6.06312 5.56873 5.93107 5.61661 5.7934 5.62627L0.682099 5.9521C0.0213715 5.99422 -0.244064 6.83253 0.270206 7.25296L4.18411 10.4527C4.29318 10.543 4.37409 10.6617 4.41753 10.7951C4.46097 10.9286 4.46518 11.0714 4.42966 11.2071L3.2602 15.7257C3.06154 16.4933 3.89275 17.1129 4.56224 16.6963L8.61828 14.1723C8.73235 14.1009 8.86477 14.0631 9 14.0631C9.13523 14.0631 9.26765 14.1009 9.38173 14.1723Z" fill="white"/>
</svg>
