<svg width="21" height="21" viewBox="0 0 21 21" fill="none" xmlns="http://www.w3.org/2000/svg">
<path d="M10.6902 0.566406C5.1702 0.566406 0.700195 5.04641 0.700195 10.5664C0.700195 16.0864 5.1702 20.5664 10.6902 20.5664C16.2202 20.5664 20.7002 16.0864 20.7002 10.5664C20.7002 5.04641 16.2202 0.566406 10.6902 0.566406ZM10.7002 18.5664C6.2802 18.5664 2.7002 14.9864 2.7002 10.5664C2.7002 6.14641 6.2802 2.56641 10.7002 2.56641C15.1202 2.56641 18.7002 6.14641 18.7002 10.5664C18.7002 14.9864 15.1202 18.5664 10.7002 18.5664ZM10.4802 5.56641H10.4202C10.0202 5.56641 9.7002 5.88641 9.7002 6.28641V11.0064C9.7002 11.3564 9.88019 11.6864 10.1902 11.8664L14.3402 14.3564C14.6802 14.5564 15.1202 14.4564 15.3202 14.1164C15.3704 14.0354 15.4038 13.9452 15.4184 13.851C15.433 13.7569 15.4285 13.6608 15.4052 13.5684C15.3819 13.476 15.3402 13.3893 15.2826 13.3133C15.2251 13.2374 15.1528 13.1738 15.0702 13.1264L11.2002 10.8264V6.28641C11.2002 5.88641 10.8802 5.56641 10.4802 5.56641Z" fill="black"/>
</svg>
