<svg width="16" height="16" viewBox="0 0 16 16" fill="none" xmlns="http://www.w3.org/2000/svg">
<path d="M8 0C12.4194 0 16 3.58065 16 8C16 12.4194 12.4194 16 8 16C3.58065 16 0 12.4194 0 8C0 3.58065 3.58065 0 8 0ZM4.25806 9.41935H8V11.7065C8 12.0516 8.41935 12.2258 8.66129 11.9806L12.3484 8.27419C12.5 8.12258 12.5 7.88065 12.3484 7.72903L8.66129 4.01935C8.41613 3.77419 8 3.94839 8 4.29355V6.58065H4.25806C4.04516 6.58065 3.87097 6.75484 3.87097 6.96774V9.03226C3.87097 9.24516 4.04516 9.41935 4.25806 9.41935Z" fill="#3C3B3C"/>
</svg>
