<svg width="59" height="58" viewBox="0 0 59 58" fill="none" xmlns="http://www.w3.org/2000/svg">
<path d="M29.7952 5.11404V38.7352M29.7952 38.7352V47.1406C29.7952 51.7829 26.032 55.546 21.3898 55.546C16.7476 55.546 12.9844 51.7829 12.9844 47.1406C12.9844 42.4983 16.7476 38.7352 21.3898 38.7352M29.7952 38.7352H21.3898M21.3898 38.7352C16.7476 38.7352 12.9844 34.9719 12.9844 30.3297C12.9844 25.6876 16.7476 21.9243 21.3898 21.9243M21.3898 21.9243H29.7952M21.3898 21.9243H38.2006M21.3898 21.9243C16.7476 21.9243 12.9844 18.1611 12.9844 13.5189C12.9844 8.87675 16.7476 5.11353 21.3898 5.11353H38.2006C42.8429 5.11353 46.606 8.87675 46.606 13.5189C46.606 18.1611 42.8429 21.9243 38.2006 21.9243M38.2006 21.9243C42.8429 21.9243 46.606 25.6876 46.606 30.3297C46.606 34.9719 42.8429 38.7352 38.2006 38.7352C33.5584 38.7352 29.7952 34.9719 29.7952 30.3297C29.7952 25.6876 33.5584 21.9243 38.2006 21.9243Z" stroke="white" stroke-width="3.60232" stroke-linejoin="round"/>
</svg>
