<svg width="59" height="59" viewBox="0 0 59 59" fill="none" xmlns="http://www.w3.org/2000/svg">
<path d="M36.6108 53.5073V43.9011C36.9449 40.8927 36.0823 37.8736 34.2093 35.4957C41.4139 35.4957 48.6185 30.6926 48.6185 22.2872C48.8106 19.2853 47.9701 16.3314 46.217 13.8818C46.8894 11.12 46.8894 8.23819 46.217 5.47641C46.217 5.47641 43.8154 5.47641 39.0123 9.07873C32.6723 7.87795 26.1401 7.87795 19.8 9.07873C14.9969 5.47641 12.5953 5.47641 12.5953 5.47641C11.8749 8.23819 11.8749 11.12 12.5953 13.8818C10.8467 16.3215 9.99801 19.292 10.1938 22.2872C10.1938 30.6926 17.3984 35.4957 24.6031 35.4957C23.6665 36.6725 22.97 38.0173 22.5618 39.4583C22.1535 40.8992 22.0334 42.4122 22.2015 43.9011V53.5073" fill="white"/>
<path d="M22.2015 43.9011C11.3706 48.7042 10.1937 39.098 5.39062 39.098L22.2015 43.9011Z" fill="white"/>
<path d="M36.6108 53.5073V43.9011C36.9449 40.8927 36.0823 37.8736 34.2093 35.4957C41.4139 35.4957 48.6185 30.6926 48.6185 22.2872C48.8106 19.2853 47.9701 16.3314 46.217 13.8818C46.8894 11.12 46.8894 8.23819 46.217 5.47641C46.217 5.47641 43.8154 5.47641 39.0123 9.07873C32.6723 7.87795 26.1401 7.87795 19.8 9.07873C14.9969 5.47641 12.5953 5.47641 12.5953 5.47641C11.8749 8.23819 11.8749 11.12 12.5953 13.8818C10.8467 16.3215 9.99801 19.292 10.1938 22.2872C10.1938 30.6926 17.3984 35.4957 24.6031 35.4957C23.6665 36.6725 22.97 38.0173 22.5618 39.4583C22.1535 40.8992 22.0334 42.4122 22.2015 43.9011M22.2015 43.9011V53.5073M22.2015 43.9011C11.3706 48.7042 10.1937 39.098 5.39062 39.098" stroke="white" stroke-width="4.80309" stroke-linecap="round" stroke-linejoin="round"/>
</svg>
