<svg width="59" height="59" viewBox="0 0 59 59" fill="none" xmlns="http://www.w3.org/2000/svg">
<path d="M29.7974 34.5744C32.5764 34.5744 34.8292 32.2988 34.8292 29.4917C34.8292 26.6847 32.5764 24.4091 29.7974 24.4091C27.0184 24.4091 24.7656 26.6847 24.7656 29.4917C24.7656 32.2988 27.0184 34.5744 29.7974 34.5744Z" fill="white"/>
<path d="M29.7958 40.9276C43.6907 40.9276 54.9548 35.8076 54.9548 29.4917C54.9548 23.1758 43.6907 18.0558 29.7958 18.0558C15.9008 18.0558 4.63672 23.1758 4.63672 29.4917C4.63672 35.8076 15.9008 40.9276 29.7958 40.9276Z" stroke="white" stroke-width="3.60232"/>
<path d="M19.9856 35.21C26.9331 47.3649 36.9549 54.6584 42.3699 51.5005C47.7849 48.3426 46.5426 35.929 39.5951 23.7741C32.6477 11.6191 22.6259 4.32564 17.2109 7.48359C11.7958 10.6415 13.0381 23.0551 19.9856 35.21Z" stroke="white" stroke-width="3.60232"/>
<path d="M19.9906 23.7736C13.0432 35.9286 11.8009 48.3421 17.2159 51.5001C22.6309 54.658 32.6527 47.3645 39.6002 35.2096C46.5476 23.0546 47.7899 10.6411 42.3749 7.48315C36.9599 4.3252 26.9381 11.6187 19.9906 23.7736Z" stroke="white" stroke-width="3.60232"/>
</svg>
