<svg width="58" height="59" viewBox="0 0 58 59" fill="none" xmlns="http://www.w3.org/2000/svg">
<path d="M29.1857 12.6811C24.2203 12.6811 20.5663 14.6706 18.2257 18.6489C17.5507 19.7963 19.4443 20.8854 20.6756 20.3793C22.0995 19.794 23.6154 19.73 25.2233 20.1879C27.2348 20.757 28.6689 22.4136 30.2598 24.2469C32.8486 27.2343 35.8472 30.6926 42.3954 30.6926C47.3588 30.6926 51.011 28.7056 53.3513 24.7322C54.0271 23.5849 52.1308 22.4937 50.8986 22.9984C49.4766 23.5808 47.963 23.6439 46.3578 23.1875C44.3495 22.6184 42.9122 20.9602 41.3214 19.125C38.7325 16.1394 35.7339 12.6811 29.1857 12.6811ZM15.9776 30.6926C11.0142 30.6926 7.36205 32.6797 5.0217 36.6531C4.34595 37.8004 6.24227 38.8916 7.47443 38.3869C8.89644 37.8045 10.4101 37.7414 12.0152 38.1978C14.0236 38.7669 15.4608 40.4251 17.0517 42.2603C19.6405 45.2459 22.6391 48.7042 29.1857 48.7042C34.152 48.7042 37.8053 46.7158 40.1457 42.7396C40.821 41.5922 38.9261 40.5022 37.6946 41.0078C36.2711 41.5922 34.7561 41.656 33.1497 41.1991C31.1398 40.6283 29.7041 38.9717 28.1133 37.1366C25.5229 34.151 22.5274 30.6926 15.9776 30.6926Z" fill="white"/>
</svg>
