<svg width="59" height="58" viewBox="0 0 59 58" fill="none" xmlns="http://www.w3.org/2000/svg">
<path fill-rule="evenodd" clip-rule="evenodd" d="M51.3004 2.71194C53.9531 2.71194 56.1035 4.85489 56.1035 7.50756C56.1035 21.1667 56.1035 41.5627 56.1035 50.7526C56.1035 53.4053 53.9606 55.5459 51.3079 55.5459C37.6488 55.5459 17.2528 55.5459 8.06289 55.5459C5.41019 55.5459 3.26956 53.4038 3.26958 50.7511C3.26969 36.8174 3.26961 16.6247 3.26957 7.50296C3.26956 4.85027 5.41998 2.71194 8.07266 2.71194L51.3004 2.71194ZM32.6396 30.8204V26.4872H13.8363V30.8204H20.5494V50.1142H25.8936V30.8204H32.6396ZM34.7702 49.6047C35.632 50.0441 36.6513 50.3737 37.8279 50.5934C39.0047 50.813 40.2448 50.923 41.5486 50.923C42.8192 50.923 44.0262 50.8021 45.1699 50.5604C46.3133 50.3188 47.3159 49.9205 48.1777 49.3658C49.0394 48.811 49.7218 48.0862 50.2245 47.1908C50.7272 46.2955 50.9786 45.1888 50.9786 43.8706C50.9786 42.9149 50.8349 42.0775 50.5476 41.358C50.2605 40.6384 49.8462 39.9985 49.3047 39.4383C48.7634 38.878 48.1142 38.3755 47.3573 37.9307C46.6004 37.4859 45.7471 37.0656 44.7969 36.6702C44.1007 36.3845 43.4765 36.1071 42.9241 35.838C42.3716 35.569 41.902 35.2943 41.5154 35.0142C41.1287 34.734 40.8305 34.4375 40.6205 34.1244C40.4106 33.8115 40.3057 33.4571 40.3057 33.0616C40.3057 32.6991 40.3995 32.3723 40.5874 32.0813C40.7752 31.7901 41.0403 31.5402 41.3828 31.3315C41.7254 31.1228 42.1451 30.9609 42.6424 30.8454C43.1395 30.7302 43.6921 30.6725 44.2997 30.6725C44.7417 30.6725 45.2084 30.7054 45.7001 30.7713C46.1918 30.8373 46.6862 30.9389 47.1833 31.0761C47.6806 31.2134 48.164 31.3864 48.6336 31.5953C49.1031 31.804 49.5367 32.0456 49.9346 32.3201V27.3935C49.1279 27.0859 48.2468 26.8579 47.291 26.7098C46.3354 26.5614 45.2388 26.4872 44.0013 26.4872C42.7419 26.4872 41.5486 26.6218 40.4216 26.891C39.2946 27.1601 38.3031 27.5803 37.4467 28.1515C36.5904 28.7227 35.9137 29.4504 35.4166 30.3346C34.9193 31.2189 34.6708 32.2762 34.6708 33.5064C34.6708 35.0774 35.1265 36.4176 36.0381 37.5269C36.9496 38.6364 38.3334 39.5756 40.1895 40.3446C40.9189 40.6413 41.5982 40.9323 42.2281 41.218C42.8578 41.5035 43.4019 41.8002 43.8604 42.1076C44.3189 42.4153 44.6808 42.7501 44.946 43.1127C45.2112 43.4752 45.3438 43.8871 45.3438 44.3486C45.3438 44.6892 45.2609 45.0049 45.0951 45.2959C44.9293 45.5871 44.678 45.8397 44.341 46.0539C44.0041 46.2681 43.5844 46.4357 43.0816 46.5564C42.5789 46.6773 41.9904 46.7377 41.3165 46.7377C40.1674 46.7377 39.0294 46.5373 37.9024 46.1364C36.7756 45.7355 35.7314 45.134 34.7702 44.3321V49.6047Z" fill="white"/>
</svg>
